<svg width="32" height="32" viewBox="0 0 32 32" fill="none" xmlns="http://www.w3.org/2000/svg">
<path d="M12.666 18.3332C12.666 19.6265 13.666 20.6665 14.8927 20.6665H17.3993C18.466 20.6665 19.3327 19.7598 19.3327 18.6265C19.3327 17.4132 18.7994 16.9732 18.0127 16.6932L13.9993 15.2932C13.2127 15.0132 12.6794 14.5865 12.6794 13.3598C12.6794 12.2398 13.546 11.3198 14.6127 11.3198H17.1193C18.346 11.3198 19.346 12.3598 19.346 13.6532" stroke="#8B8B8B" stroke-width="1.5" stroke-linecap="round" stroke-linejoin="round"/>
<path d="M16 10V22" stroke="#8B8B8B" stroke-width="1.5" stroke-linecap="round" stroke-linejoin="round"/>
<path d="M29.3327 15.9998C29.3327 23.3598 23.3593 29.3332 15.9993 29.3332C8.63935 29.3332 2.66602 23.3598 2.66602 15.9998C2.66602 8.63984 8.63935 2.6665 15.9993 2.6665" stroke="#8B8B8B" stroke-width="1.5" stroke-linecap="round" stroke-linejoin="round"/>
<path d="M22.666 4V9.33333H27.9993" stroke="#8B8B8B" stroke-width="1.5" stroke-linecap="round" stroke-linejoin="round"/>
<path d="M29.3327 2.6665L22.666 9.33317" stroke="#8B8B8B" stroke-width="1.5" stroke-linecap="round" stroke-linejoin="round"/>
</svg>
