<svg width="32" height="32" viewBox="0 0 32 32" fill="none" xmlns="http://www.w3.org/2000/svg">
<path d="M16 7.41309H29.3333" stroke="#ED6A22" stroke-width="1.5" stroke-miterlimit="10" stroke-linecap="round" stroke-linejoin="round"/>
<path d="M18.96 2.66699H26.3733C28.7467 2.66699 29.3333 3.25366 29.3333 5.60033V11.0803C29.3333 13.427 28.7467 14.0137 26.3733 14.0137H18.96C16.5867 14.0137 16 13.427 16 11.0803V5.60033C16 3.25366 16.5867 2.66699 18.96 2.66699Z" stroke="#ED6A22" stroke-width="1.5" stroke-linecap="round" stroke-linejoin="round"/>
<path d="M2.66602 22.7471H15.9993" stroke="#ED6A22" stroke-width="1.5" stroke-miterlimit="10" stroke-linecap="round" stroke-linejoin="round"/>
<path d="M5.62602 18H13.0393C15.4127 18 15.9993 18.5867 15.9993 20.9333V26.4133C15.9993 28.76 15.4127 29.3467 13.0393 29.3467H5.62602C3.25268 29.3467 2.66602 28.76 2.66602 26.4133V20.9333C2.66602 18.5867 3.25268 18 5.62602 18Z" stroke="#ED6A22" stroke-width="1.5" stroke-linecap="round" stroke-linejoin="round"/>
<path d="M29.3333 20C29.3333 25.16 25.16 29.3333 20 29.3333L21.4 27" stroke="#ED6A22" stroke-width="1.5" stroke-linecap="round" stroke-linejoin="round"/>
<path d="M2.66602 12.0003C2.66602 6.84033 6.83935 2.66699 11.9993 2.66699L10.5994 5.00033" stroke="#ED6A22" stroke-width="1.5" stroke-linecap="round" stroke-linejoin="round"/>
</svg>
