<svg width="32" height="32" viewBox="0 0 32 32" fill="none" xmlns="http://www.w3.org/2000/svg">
<path d="M29.3327 16.0002V22.6668C29.3327 26.6668 26.666 29.3335 22.666 29.3335H9.33268C5.33268 29.3335 2.66602 26.6668 2.66602 22.6668V16.0002C2.66602 12.3735 4.85268 9.84016 8.25268 9.41349C8.59935 9.36016 8.95935 9.3335 9.33268 9.3335H22.666C23.0127 9.3335 23.346 9.34681 23.666 9.40015C27.106 9.80015 29.3327 12.3468 29.3327 16.0002Z" stroke="#ED6A22" stroke-width="1.5" stroke-linecap="round" stroke-linejoin="round"/>
<path d="M23.6692 9.39984C23.3492 9.3465 23.0159 9.33318 22.6692 9.33318H9.33586C8.96253 9.33318 8.60253 9.35985 8.25586 9.41318C8.44253 9.03985 8.70919 8.69318 9.02919 8.37318L13.3625 4.0265C15.1892 2.21317 18.1492 2.21317 19.9759 4.0265L22.3092 6.38653C23.1625 7.22653 23.6159 8.29317 23.6692 9.39984Z" stroke="#ED6A22" stroke-width="1.5" stroke-linecap="round" stroke-linejoin="round"/>
<path d="M29.3327 16.6665H25.3327C23.866 16.6665 22.666 17.8665 22.666 19.3332C22.666 20.7998 23.866 21.9998 25.3327 21.9998H29.3327" stroke="#ED6A22" stroke-width="1.5" stroke-linecap="round" stroke-linejoin="round"/>
</svg>
