<svg width="144" height="49" viewBox="0 0 144 49" fill="none" xmlns="http://www.w3.org/2000/svg">
<g clip-path="url(#clip0_396_2587)">
<path d="M142.504 44.1177L142.106 43.9185M143.002 39.4373C143.002 40.234 142.902 40.9311 142.803 41.7277C142.703 42.4248 142.405 43.1219 142.106 43.8189C141.807 44.516 141.309 45.1135 140.811 45.6114C140.313 46.1093 139.716 46.6072 139.019 46.906M143.002 39.4373H143.5M143.002 39.4373C143.002 39.039 143.002 38.7402 143.002 38.3419C143.002 37.9436 143.002 37.4457 143.002 37.0473V11.9526C143.002 11.5543 143.002 11.0564 143.002 10.6581C143.002 10.2597 143.002 9.961 143.002 9.56267M143.002 9.56267H143.5M143.002 9.56267C143.002 8.76601 142.902 7.96935 142.803 7.27228C142.703 6.5752 142.405 5.77855 142.106 5.18105M142.106 5.18105L142.504 4.98189M142.106 5.18105C141.409 3.88649 140.313 2.79108 139.019 2.09401M139.218 1.5961L138.919 1.99442C138.222 1.69568 137.525 1.39693 136.828 1.29735M136.828 1.29735L136.928 0.799438M136.828 1.29735C136.031 1.19777 135.334 1.09819 134.538 1.09819C134.438 1.09819 134.438 1.09819 134.338 1.09819C134.04 1.09819 133.741 1.09819 133.442 1.09819M133.442 1.09819C133.044 1.09819 132.646 1.09819 132.247 1.09819H132.148H9.76114M133.442 1.09819H9.76114M9.76114 1.09819C9.66156 1.09819 9.56198 1.09819 9.56198 1.09819C8.76532 1.09819 7.96866 1.19777 7.27159 1.29735C6.47493 1.39693 5.67827 1.69568 5.08078 1.99442L4.78203 1.5961M139.118 47.4039L138.919 47.0056C138.222 47.3043 137.525 47.6031 136.828 47.7026M136.828 47.7026L136.928 48.2006M136.828 47.7026C136.031 47.8022 135.334 47.9018 134.538 47.9018C134.139 47.9018 133.841 47.9018 133.442 47.9018C133.044 47.9018 132.546 47.9018 132.148 47.9018H11.8524C11.454 47.9018 10.9561 47.9018 10.5578 47.9018C10.1595 47.9018 9.86072 47.9018 9.4624 47.9018C8.66574 47.9018 7.86908 47.8022 7.17201 47.7026M7.17201 47.7026C6.47493 47.6031 5.67827 47.3043 5.08078 47.0056C4.3837 46.7068 3.78621 46.2089 3.2883 45.711C2.79039 45.2131 2.29248 44.6156 1.99373 43.9185C1.69499 43.2214 1.39624 42.5244 1.29666 41.8273C1.19708 41.0306 1.09749 40.3336 1.09749 39.5369C1.09749 39.2382 1.09749 39.039 1.09749 38.8398C1.09749 38.7402 1.09749 38.6407 1.09749 38.4415M7.17201 47.7026L7.07242 48.2006M0.997911 10.6581V38.3419H0.5M0.997911 10.6581C0.997911 10.5585 0.997911 10.4589 0.997911 10.2597C0.997911 10.0606 0.997911 9.76183 0.997911 9.56267C0.997911 8.76601 1.09749 7.96935 1.19708 7.27228C1.29666 6.5752 1.5954 5.77855 1.89415 5.18105C2.1929 4.48398 2.69081 3.88649 3.18872 3.38857C3.68663 2.89066 4.28412 2.39275 4.9812 2.09401M0.997911 10.6581H0.5" stroke="white" stroke-width="0.995822"/>
<path d="M30.3747 24.4004C30.3747 23.4046 30.6735 22.3092 31.1714 21.4129C31.6693 20.5167 32.3664 19.72 33.2626 19.2221C32.6651 18.4255 31.968 17.7284 31.0718 17.3301C30.2751 16.8322 29.2793 16.5334 28.3831 16.5334C26.2918 16.3343 24.3002 17.828 23.2048 17.828C22.1094 17.828 20.5161 16.633 18.7236 16.633C17.6282 16.633 16.4332 17.0313 15.537 17.6288C14.5411 18.2263 13.7445 19.023 13.2466 20.0188C10.8566 24.2012 12.6491 30.2758 14.9395 33.6616C16.1345 35.3545 17.429 37.1469 19.2215 37.0473C20.9144 36.9478 21.6115 35.9519 23.7027 35.9519C25.7939 35.9519 26.3914 37.0473 28.1839 37.0473C30.076 37.0473 31.1714 35.3545 32.2668 33.7611C33.0634 32.5661 33.7605 31.2716 34.1588 29.8774C33.0634 29.3795 32.1672 28.6824 31.5697 27.6866C30.9722 26.6908 30.3747 25.4958 30.3747 24.4004Z" fill="white"/>
<path d="M26.9887 14.3426C27.9845 13.1476 28.4824 11.5543 28.3828 9.961C26.8891 10.1602 25.3953 10.8572 24.3995 12.0522C23.9016 12.6497 23.5033 13.2472 23.3041 14.0439C23.105 14.7409 23.0054 15.5376 23.0054 16.2347C23.802 16.2347 24.4991 16.0355 25.1962 15.7368C25.8933 15.438 26.4907 14.9401 26.9887 14.3426Z" fill="white"/>
<path d="M51.0877 33.064H45.4116L44.0174 37.0473H41.6274L47.0049 22.2096H49.4944L54.8719 37.0473H52.4819L51.0877 33.064ZM46.0091 31.172H50.4903L48.2994 24.6991H48.1999L46.0091 31.172Z" fill="white"/>
<path d="M66.4235 31.6699C66.4235 35.0557 64.631 37.1469 61.9423 37.1469C61.2452 37.1469 60.5481 37.0474 59.9507 36.649C59.3532 36.3503 58.8552 35.8524 58.5565 35.2549H58.4569V40.6323H56.2661V26.1929H58.4569V27.9854C58.7557 27.3879 59.3532 26.89 59.9507 26.5912C60.5481 26.2925 61.2452 26.0933 61.9423 26.0933C64.631 26.0933 66.4235 28.2841 66.4235 31.6699ZM64.1331 31.6699C64.1331 29.4791 63.0377 28.085 61.2452 28.085C59.5523 28.085 58.3573 29.5787 58.3573 31.6699C58.3573 33.8607 59.4527 35.3545 61.2452 35.3545C63.0377 35.2549 64.1331 33.8607 64.1331 31.6699Z" fill="white"/>
<path d="M78.2736 31.6699C78.2736 35.0557 76.4811 37.1469 73.7924 37.1469C73.0953 37.1469 72.3982 37.0474 71.8007 36.649C71.2033 36.3503 70.7053 35.8524 70.4066 35.2549H70.307V40.6323H68.1162V26.1929H70.307V27.9854C70.6058 27.3879 71.2033 26.89 71.8007 26.5912C72.3982 26.2925 73.0953 26.0933 73.7924 26.0933C76.4811 26.0933 78.2736 28.2841 78.2736 31.6699ZM76.0828 31.6699C76.0828 29.4791 74.9874 28.085 73.1949 28.085C71.502 28.085 70.4066 29.5787 70.4066 31.6699C70.4066 33.8607 71.502 35.3545 73.1949 35.3545C74.8878 35.2549 76.0828 33.8607 76.0828 31.6699Z" fill="white"/>
<path d="M86.1405 32.8649C86.3396 34.3586 87.7338 35.2549 89.7254 35.2549C91.6175 35.2549 92.9121 34.259 92.9121 32.9645C92.9121 31.7695 92.1154 31.172 90.2233 30.6741L88.3313 30.1762C85.6425 29.4791 84.348 28.2841 84.348 26.1929C84.348 23.6038 86.5388 21.9109 89.7254 21.9109C92.912 21.9109 95.0033 23.7033 95.1029 26.1929H92.8125C92.7129 24.6992 91.4183 23.8029 89.6258 23.8029C87.8334 23.8029 86.6384 24.6992 86.6384 25.9937C86.6384 27.0891 87.435 27.6866 89.3271 28.085L90.9204 28.4833C94.0075 29.1804 95.2024 30.4749 95.2024 32.5661C95.2024 35.3545 93.0116 37.0473 89.4267 37.0473C86.1405 37.0473 83.9497 35.3545 83.7505 32.6657L86.1405 32.8649Z" fill="white"/>
<path d="M100.082 23.7033V26.2925H102.173V28.085H100.082V34.0599C100.082 34.9561 100.48 35.454 101.377 35.454C101.576 35.454 101.874 35.454 102.074 35.3545V37.1469C101.675 37.2465 101.277 37.2465 100.879 37.2465C98.6878 37.2465 97.7916 36.4499 97.7916 34.3586V28.1845H96.1982V26.3921H97.7916V23.8029L100.082 23.7033Z" fill="white"/>
<path d="M103.368 31.6699C103.368 28.2841 105.36 26.0933 108.546 26.0933C111.733 26.0933 113.725 28.1845 113.725 31.6699C113.725 35.0557 111.733 37.2465 108.546 37.2465C105.36 37.1469 103.368 35.0557 103.368 31.6699ZM111.335 31.6699C111.335 29.3795 110.239 27.9854 108.447 27.9854C106.654 27.9854 105.559 29.3795 105.559 31.6699C105.559 34.0599 106.654 35.3545 108.447 35.3545C110.239 35.3545 111.335 33.9603 111.335 31.6699Z" fill="white"/>
<path d="M115.418 26.1929H117.509V27.9854H117.609C117.708 27.3879 118.107 26.89 118.605 26.5912C119.103 26.2925 119.7 26.0933 120.297 26.0933C120.596 26.0933 120.795 26.0933 121.094 26.1929V28.2841C120.795 28.1845 120.397 28.1845 120.098 28.1845C119.8 28.1845 119.501 28.1845 119.202 28.3837C118.903 28.4833 118.605 28.6825 118.405 28.8816C118.206 29.0808 118.007 29.3795 117.908 29.6783C117.808 29.977 117.808 30.2758 117.808 30.6741V37.0474H115.617V26.1929H115.418Z" fill="white"/>
<path d="M131.251 33.8607C130.952 35.8524 129.06 37.1469 126.571 37.1469C123.384 37.1469 121.492 35.0557 121.492 31.6699C121.492 28.2841 123.484 26.0933 126.471 26.0933C129.459 26.0933 131.351 28.1845 131.351 31.4708V32.2674H123.683V32.367C123.683 32.7653 123.683 33.1637 123.783 33.562C123.882 33.9603 124.081 34.2591 124.38 34.5578C124.679 34.8566 124.978 35.0557 125.376 35.2549C125.774 35.454 126.173 35.454 126.571 35.454C127.069 35.454 127.666 35.3545 128.065 35.1553C128.563 34.8566 128.861 34.4582 129.06 33.9603L131.251 33.8607ZM123.683 30.6741H129.06C129.06 30.2758 129.06 29.977 128.861 29.5787C128.762 29.28 128.563 28.9812 128.264 28.6825C128.065 28.3837 127.666 28.1845 127.368 28.085C127.069 27.9854 126.67 27.8858 126.272 27.8858C125.874 27.8858 125.575 27.9854 125.177 28.085C124.878 28.1845 124.579 28.3837 124.28 28.6825C123.982 28.9812 123.783 29.28 123.683 29.5787C123.583 29.8774 123.683 30.2758 123.683 30.6741Z" fill="white"/>
<path d="M45.7102 11.0564C46.2081 11.0564 46.6065 11.0564 47.1044 11.2556C47.5027 11.4547 47.901 11.6539 48.2994 12.0522C48.5981 12.351 48.8969 12.7493 48.9964 13.2472C49.096 13.6455 49.1956 14.1434 49.096 14.6414C49.096 16.9317 47.901 18.2263 45.7102 18.2263H43.1211V11.0564C43.1211 11.0564 45.7102 11.0564 45.7102 11.0564ZM44.2165 17.1309H45.5111C45.8098 17.1309 46.2081 17.1309 46.5069 16.9317C46.8056 16.8322 47.1044 16.633 47.3035 16.3343C47.5027 16.1351 47.7019 15.8363 47.8015 15.438C47.901 15.1393 47.901 14.7409 47.901 14.4422C47.901 14.1434 47.901 13.7451 47.8015 13.4464C47.7019 13.1476 47.5027 12.8489 47.3035 12.5501C47.1044 12.351 46.8056 12.1518 46.5069 11.9526C46.2081 11.8531 45.9094 11.7535 45.5111 11.7535H44.2165V17.1309Z" fill="white"/>
<path d="M50.291 15.438C50.291 15.0397 50.291 14.7409 50.3906 14.3426C50.4902 14.0439 50.6893 13.7451 50.8885 13.4464C51.0877 13.1476 51.3864 12.9485 51.7847 12.8489C52.0835 12.7493 52.4818 12.6497 52.7806 12.6497C53.1789 12.6497 53.4776 12.7493 53.7764 12.8489C54.0751 12.9485 54.3739 13.2472 54.6726 13.4464C54.8718 13.7451 55.071 14.0439 55.1705 14.3426C55.2701 14.6414 55.3697 15.0397 55.2701 15.438C55.2701 15.8363 55.2701 16.1351 55.1705 16.5334C55.071 16.8322 54.8718 17.2305 54.6726 17.4297C54.4735 17.7284 54.1747 17.9276 53.7764 18.0272C53.4776 18.1267 53.0793 18.2263 52.7806 18.2263C52.3822 18.2263 52.0835 18.1267 51.7847 18.0272C51.486 17.9276 51.1873 17.6288 50.8885 17.4297C50.6893 17.1309 50.4902 16.8322 50.3906 16.5334C50.291 16.1351 50.291 15.8363 50.291 15.438ZM54.2743 15.438C54.2743 14.243 53.7764 13.546 52.8802 13.546C51.9839 13.546 51.486 14.243 51.486 15.438C51.486 16.633 51.9839 17.3301 52.8802 17.3301C53.7764 17.3301 54.2743 16.633 54.2743 15.438Z" fill="white"/>
<path d="M62.1414 18.1267H61.046L59.9506 14.1434H59.851L58.7556 18.1267H57.6602L56.1665 12.7493H57.2619L58.2577 16.8322L59.3531 12.7493H60.349L61.4444 16.8322H61.5439L62.5398 12.7493H63.6352L62.1414 18.1267Z" fill="white"/>
<path d="M64.8301 12.7493H65.8259V13.6455H65.9255C66.0251 13.3468 66.3238 13.048 66.6226 12.9485C66.9213 12.7493 67.2201 12.6497 67.6184 12.7493C67.9171 12.7493 68.1163 12.7493 68.415 12.8489C68.6142 12.9485 68.913 13.048 69.0125 13.2472C69.2117 13.4464 69.3113 13.6455 69.4109 13.9443C69.5104 14.243 69.5104 14.4422 69.5104 14.7409V18.2263H68.415V15.0397C68.415 14.1435 68.0167 13.7451 67.2201 13.7451C67.0209 13.7451 66.8217 13.7451 66.7221 13.8447C66.523 13.9443 66.4234 14.0439 66.3238 14.1435C66.2242 14.243 66.1247 14.4422 66.0251 14.6414C65.9255 14.8405 65.9255 14.9401 65.9255 15.1393V18.3259H64.8301V12.7493Z" fill="white"/>
<path d="M71.1035 10.6581H72.1989V18.1267H71.1035V10.6581Z" fill="white"/>
<path d="M73.6931 15.438C73.6931 15.0397 73.6931 14.7409 73.7927 14.3426C73.8923 13.9443 74.0914 13.7451 74.2906 13.4464C74.4898 13.1476 74.7885 12.9485 75.1868 12.8489C75.4856 12.7493 75.8839 12.6497 76.1827 12.6497C76.581 12.6497 76.8797 12.7493 77.1785 12.8489C77.4772 12.9485 77.776 13.2472 78.0747 13.4464C78.2739 13.7451 78.4731 14.0439 78.5726 14.3426C78.6722 14.6414 78.7718 15.0397 78.6722 15.438C78.6722 15.8363 78.6722 16.1351 78.5726 16.5334C78.4731 16.8322 78.2739 17.2305 78.0747 17.4297C77.8756 17.7284 77.5768 17.9276 77.1785 18.0272C76.7802 18.1267 76.4814 18.2263 76.1827 18.2263C75.7843 18.2263 75.4856 18.1267 75.1868 18.0272C74.8881 17.9276 74.5893 17.6288 74.2906 17.4297C74.0914 17.1309 73.8923 16.8322 73.7927 16.5334C73.6931 16.1351 73.5935 15.8363 73.6931 15.438ZM77.6764 15.438C77.6764 14.243 77.1785 13.546 76.2822 13.546C75.386 13.546 74.8881 14.243 74.8881 15.438C74.8881 16.633 75.386 17.3301 76.2822 17.3301C77.0789 17.3301 77.6764 16.633 77.6764 15.438Z" fill="white"/>
<path d="M79.8672 16.633C79.8672 15.6372 80.5643 15.1393 81.8588 15.0397L83.3526 14.9401V14.4422C83.3526 13.8447 82.9542 13.546 82.2572 13.546C81.6597 13.546 81.2613 13.7451 81.1618 14.1435H80.1659C80.2655 13.2472 81.1618 12.6497 82.3567 12.6497C83.7509 12.6497 84.448 13.3468 84.448 14.4422V18.1267H83.4522V17.3301H83.3526C83.1534 17.6288 82.9542 17.828 82.6555 17.9276C82.3567 18.0272 82.058 18.1267 81.7593 18.1267C81.5601 18.1267 81.2613 18.1267 81.0622 18.0272C80.863 17.9276 80.6639 17.828 80.4647 17.7284C80.2655 17.5292 80.1659 17.4297 80.0664 17.2305C79.8672 17.1309 79.8672 16.8322 79.8672 16.633ZM83.3526 16.1351V15.6372L82.058 15.7368C81.3609 15.7368 80.9626 16.0355 80.9626 16.5334C80.9626 17.0313 81.3609 17.3301 81.9584 17.3301C82.1576 17.3301 82.2572 17.3301 82.4563 17.2305C82.6555 17.1309 82.7551 17.1309 82.8547 17.0313C82.9542 16.9318 83.0538 16.8322 83.1534 16.633C83.253 16.5334 83.253 16.3343 83.3526 16.1351Z" fill="white"/>
<path d="M85.7422 15.438C85.7422 13.7451 86.6384 12.6497 87.933 12.6497C88.2317 12.6497 88.6301 12.7493 88.9288 12.8489C89.2276 13.0481 89.4267 13.2472 89.6259 13.546H89.7255V10.5585H90.8209V18.0272H89.8251V17.1309H89.7255C89.5263 17.4297 89.3271 17.6288 89.0284 17.828C88.7297 18.0272 88.4309 18.0272 88.0326 18.0272C86.6384 18.2263 85.7422 17.1309 85.7422 15.438ZM86.8376 15.438C86.8376 16.5334 87.3355 17.2305 88.2317 17.2305C89.128 17.2305 89.7255 16.5334 89.7255 15.438C89.7255 14.3426 89.128 13.6455 88.2317 13.6455C87.4351 13.6455 86.8376 14.3426 86.8376 15.438Z" fill="white"/>
<path d="M95.2029 15.438C95.2029 15.0397 95.2029 14.7409 95.3025 14.3426C95.402 13.9443 95.6012 13.7451 95.8004 13.4464C95.9995 13.1476 96.2983 12.9485 96.6966 12.8489C96.9953 12.7493 97.3937 12.6497 97.6924 12.6497C98.0908 12.6497 98.3895 12.7493 98.6882 12.8489C98.987 12.9485 99.2857 13.2472 99.5845 13.4464C99.7837 13.7451 99.9828 14.0439 100.082 14.3426C100.182 14.6414 100.282 15.0397 100.182 15.438C100.182 15.8363 100.182 16.1351 100.082 16.5334C99.9828 16.8322 99.7837 17.2305 99.5845 17.4297C99.3853 17.7284 99.0866 17.9276 98.6882 18.0272C98.3895 18.1267 97.9912 18.2263 97.6924 18.2263C97.2941 18.2263 96.9953 18.1267 96.6966 18.0272C96.3979 17.9276 96.0991 17.6288 95.8004 17.4297C95.5016 17.2305 95.402 16.8322 95.3025 16.5334C95.2029 16.1351 95.1033 15.8363 95.2029 15.438ZM99.1862 15.438C99.1862 14.243 98.6882 13.546 97.792 13.546C96.8958 13.546 96.3979 14.243 96.3979 15.438C96.3979 16.633 96.8958 17.3301 97.792 17.3301C98.5887 17.3301 99.1862 16.633 99.1862 15.438Z" fill="white"/>
<path d="M101.675 12.7493H102.671V13.6455H102.771C102.87 13.3468 103.169 13.048 103.468 12.9485C103.767 12.7493 104.065 12.6497 104.464 12.7493C104.762 12.7493 104.962 12.7493 105.26 12.8489C105.459 12.9485 105.758 13.048 105.858 13.2472C106.057 13.4464 106.156 13.6455 106.256 13.9443C106.356 14.243 106.356 14.4422 106.356 14.7409V18.2263H105.26V15.0397C105.26 14.1435 104.862 13.7451 104.065 13.7451C103.866 13.7451 103.667 13.7451 103.567 13.8447C103.368 13.9443 103.269 14.0439 103.169 14.1435C103.069 14.243 102.97 14.4422 102.87 14.6414C102.771 14.8405 102.771 14.9401 102.771 15.1393V18.3259H101.675V12.7493Z" fill="white"/>
<path d="M112.231 11.4547V12.8489H113.426V13.7451H112.231V16.5334C112.231 17.1309 112.431 17.3301 113.028 17.3301C113.128 17.3301 113.327 17.3301 113.426 17.3301V18.2263C113.227 18.2263 113.028 18.3259 112.829 18.3259C111.634 18.3259 111.136 17.9276 111.136 16.8322V13.7451H110.24V12.8489H111.136V11.4547H112.231Z" fill="white"/>
<path d="M114.82 10.6581H115.916V13.6455H116.015C116.115 13.3468 116.414 13.0481 116.712 12.9485C117.011 12.7493 117.31 12.6497 117.708 12.7493C118.007 12.7493 118.206 12.7493 118.505 12.8489C118.704 12.9485 119.003 13.0481 119.102 13.2472C119.302 13.4464 119.401 13.6455 119.501 13.9443C119.6 14.1435 119.6 14.4422 119.6 14.7409V18.2263H118.505V15.0397C118.505 14.1435 118.107 13.7451 117.31 13.7451C117.111 13.7451 116.912 13.7451 116.812 13.8447C116.613 13.9443 116.513 14.0439 116.314 14.1435C116.214 14.243 116.115 14.4422 116.015 14.6414C115.916 14.8405 115.916 15.0397 115.916 15.1393V18.3259H114.82V10.6581Z" fill="white"/>
<path d="M125.675 16.7326C125.575 17.2305 125.177 17.6288 124.779 17.9276C124.38 18.2263 123.882 18.3259 123.285 18.3259C122.887 18.3259 122.588 18.2263 122.289 18.1267C121.99 18.0272 121.692 17.7284 121.393 17.5292C121.194 17.2305 120.995 16.9317 120.895 16.633C120.795 16.3343 120.795 15.9359 120.795 15.5376C120.795 15.1393 120.795 14.8405 120.895 14.4422C120.995 14.1434 121.194 13.7451 121.393 13.546C121.592 13.2472 121.891 13.048 122.289 12.9485C122.588 12.8489 122.986 12.7493 123.285 12.7493C124.779 12.7493 125.675 13.7451 125.675 15.438V15.8363H121.99V15.9359C121.99 16.1351 121.99 16.3343 122.09 16.5334C122.19 16.7326 122.289 16.9317 122.389 17.0313C122.488 17.1309 122.687 17.3301 122.887 17.3301C123.086 17.4297 123.285 17.4297 123.484 17.4297C123.783 17.4297 123.982 17.4297 124.181 17.3301C124.38 17.2305 124.58 17.0313 124.679 16.8322L125.675 16.7326ZM121.99 14.9401H124.679C124.679 14.7409 124.679 14.5418 124.58 14.4422C124.48 14.243 124.38 14.1434 124.281 13.9443C124.181 13.8447 123.982 13.7451 123.882 13.6455C123.783 13.546 123.584 13.546 123.385 13.546C123.185 13.546 122.986 13.546 122.887 13.6455C122.687 13.7451 122.588 13.8447 122.389 13.9443C122.289 14.0439 122.19 14.243 122.09 14.4422C121.99 14.6414 121.99 14.8405 121.99 14.9401Z" fill="white"/>
</g>
<defs>
<clipPath id="clip0_396_2587">
<rect x="0.5" y="0.5" width="143" height="48" rx="8" fill="white"/>
</clipPath>
</defs>
</svg>
