<svg width="23" height="22" viewBox="0 0 23 22" fill="none" xmlns="http://www.w3.org/2000/svg">
<path d="M18.3747 8.40041C18.3747 7.40459 18.6735 6.30918 19.1714 5.41295C19.6693 4.51671 20.3664 3.72005 21.2626 3.22214C20.6651 2.42548 19.968 1.7284 19.0718 1.33008C18.2751 0.832165 17.2793 0.533419 16.3831 0.533419C14.2918 0.334255 12.3002 1.82799 11.2048 1.82799C10.1094 1.82799 8.51607 0.633002 6.72359 0.633002C5.62819 0.633002 4.4332 1.03133 3.53697 1.62882C2.54114 2.22632 1.74449 3.02297 1.24658 4.0188C-1.1434 8.20125 0.649082 14.2758 2.93947 17.6616C4.13446 19.3545 5.42903 21.1469 7.2215 21.0473C8.9144 20.9478 9.61148 19.9519 11.7027 19.9519C13.7939 19.9519 14.3914 21.0473 16.1839 21.0473C18.076 21.0473 19.1714 19.3545 20.2668 17.7611C21.0634 16.5661 21.7605 15.2716 22.1588 13.8774C21.0634 13.3795 20.1672 12.6824 19.5697 11.6866C18.9722 10.6908 18.3747 9.49581 18.3747 8.40041Z" fill="white"/>
</svg>
