<svg width="40" height="40" viewBox="0 0 40 40" fill="none" xmlns="http://www.w3.org/2000/svg">
<g clip-path="url(#clip0_2445_1468)">
<path d="M34.1422 5.85781C30.3646 2.08039 25.3422 0 20 0C14.6578 0 9.63539 2.08039 5.85781 5.85781C2.08039 9.63539 0 14.6578 0 20C0 23.5238 0.924687 26.9712 2.67859 30.0032L0 40L9.9968 37.3214C13.0288 39.0753 16.4762 40 20 40C25.3422 40 30.3646 37.9196 34.1422 34.1422C37.9196 30.3646 40 25.3422 40 20C40 14.6578 37.9196 9.63539 34.1422 5.85781ZM20 37.6562C16.7379 37.6562 13.551 36.7594 10.784 35.0624L10.3546 34.7991L3.31453 36.6855L5.20094 29.6455L4.93766 29.2161C3.24062 26.449 2.34375 23.2621 2.34375 20C2.34375 10.2643 10.2643 2.34375 20 2.34375C29.7357 2.34375 37.6562 10.2643 37.6562 20C37.6562 29.7357 29.7357 37.6562 20 37.6562Z" fill="white"/>
<path d="M21.1719 27.6172H18.8281V29.9609H21.1719V27.6172Z" fill="white"/>
<path d="M20 10.0391C16.7691 10.0391 14.1406 12.6676 14.1406 15.8984H16.4844C16.4844 13.9599 18.0615 12.3828 20 12.3828C21.9385 12.3828 23.5156 13.9599 23.5156 15.8984C23.5156 16.7641 23.1977 17.5962 22.6198 18.2418L18.8281 22.4821V25.2734H21.1719V23.3773L24.3666 19.8046C25.3292 18.7289 25.8594 17.3418 25.8594 15.8984C25.8594 12.6676 23.2309 10.0391 20 10.0391Z" fill="white"/>
</g>
<defs>
<clipPath id="clip0_2445_1468">
<rect width="40" height="40" fill="white"/>
</clipPath>
</defs>
</svg>
