<svg width="166" height="49" viewBox="0 0 166 49" fill="none" xmlns="http://www.w3.org/2000/svg">
<g clip-path="url(#clip0_396_2563)">
<path d="M158 0.5H8C4.7 0.5 2 3.2 2 6.5V42.5C2 45.8 4.7 48.5 8 48.5H158C161.3 48.5 164 45.8 164 42.5V6.5C164 3.2 161.3 0.5 158 0.5ZM163.04 42.5C163.04 45.284 160.784 47.54 158 47.54H8C5.216 47.54 2.96 45.284 2.96 42.5V6.5C2.96 3.716 5.216 1.46 8 1.46H158C160.784 1.46 163.04 3.716 163.04 6.5V42.5Z" fill="white"/>
<path d="M53.5402 15.764C54.1162 16.064 54.7642 16.22 55.4722 16.22C56.0002 16.22 56.5042 16.124 57.0082 15.932C57.5122 15.74 57.9922 15.464 58.4602 15.092V12.416H55.4122V13.268H57.5242V14.612C57.3202 14.792 57.0202 14.96 56.6362 15.116C56.2402 15.272 55.8442 15.356 55.4242 15.356C54.9442 15.356 54.5002 15.248 54.0802 15.044C53.6602 14.84 53.3362 14.516 53.1202 14.084C52.9042 13.652 52.7842 13.112 52.7842 12.476C52.7842 11.96 52.8802 11.468 53.0602 11.024C53.1682 10.76 53.3242 10.532 53.5162 10.316C53.7082 10.1 53.9722 9.92001 54.2842 9.78801C54.5962 9.65601 54.9802 9.58401 55.4122 9.58401C55.7722 9.58401 56.1082 9.64401 56.4082 9.77601C56.7082 9.90801 56.9362 10.064 57.0922 10.28C57.2482 10.496 57.3922 10.784 57.5002 11.144L58.3642 10.904C58.2442 10.424 58.0642 10.028 57.8242 9.72801C57.5842 9.42801 57.2602 9.18801 56.8402 9.02001C56.4202 8.85201 55.9522 8.76801 55.4242 8.76801C54.7042 8.76801 54.0802 8.91201 53.5282 9.21201C52.9762 9.51201 52.5562 9.95601 52.2682 10.568C51.9802 11.18 51.8242 11.828 51.8242 12.524C51.8242 13.22 51.9682 13.868 52.2682 14.444C52.5682 15.02 53.0002 15.452 53.5762 15.752L53.5402 15.764Z" fill="white"/>
<path d="M65.7442 15.248H61.3282V12.8H65.3002V11.96H61.3282V9.75199H65.5762V8.89999H60.3682V16.1H65.7442V15.248Z" fill="white"/>
<path d="M69.3921 16.1H70.3401V9.75199H72.7281V8.89999H67.0161V9.75199H69.3921V16.1Z" fill="white"/>
<path d="M78.428 8.89999H77.48V16.1H78.428V8.89999Z" fill="white"/>
<path d="M82.4478 16.1H83.3958V9.75199H85.7838V8.89999H80.0718V9.75199H82.4478V16.1Z" fill="white"/>
<path d="M91.7121 15.728C92.2401 16.052 92.8521 16.22 93.5241 16.22C94.1481 16.22 94.7361 16.076 95.2761 15.776C95.8161 15.476 96.2361 15.044 96.5241 14.468C96.8241 13.892 96.9681 13.244 96.9681 12.512C96.9681 11.78 96.8241 11.144 96.5481 10.58C96.2721 10.016 95.8641 9.57201 95.3241 9.24801C94.7841 8.93601 94.1961 8.76801 93.5241 8.76801C92.5041 8.76801 91.6761 9.10401 91.0401 9.78801C90.4041 10.46 90.0801 11.396 90.0801 12.596C90.0801 13.232 90.2121 13.832 90.4881 14.396C90.7641 14.96 91.1721 15.404 91.7001 15.74L91.7121 15.728ZM91.7961 10.28C92.2881 9.81201 92.8641 9.58401 93.5361 9.58401C94.0161 9.58401 94.4361 9.70401 94.8201 9.94401C95.2041 10.184 95.4921 10.52 95.6841 10.964C95.8881 11.396 95.9841 11.912 95.9841 12.5C95.9841 13.424 95.7561 14.144 95.2881 14.648C94.8201 15.152 94.2321 15.404 93.5241 15.404C92.8161 15.404 92.2401 15.152 91.7721 14.66C91.3041 14.168 91.0761 13.472 91.0761 12.608C91.0761 11.528 91.3161 10.748 91.8081 10.292L91.7961 10.28Z" fill="white"/>
<path d="M103.448 14.552L99.6678 8.89999H98.6958V16.1H99.6078V10.448L103.388 16.1H104.36V8.89999H103.448V14.552Z" fill="white"/>
<path d="M59.288 28.172V30.332H64.472C64.316 31.544 63.908 32.444 63.296 33.056C62.54 33.812 61.364 34.64 59.3 34.64C56.108 34.64 53.612 32.072 53.612 28.88C53.612 25.688 56.108 23.12 59.3 23.12C61.016 23.12 62.276 23.792 63.2 24.668L64.724 23.144C63.428 21.908 61.712 20.96 59.288 20.96C54.92 20.96 51.248 24.512 51.248 28.892C51.248 33.272 54.92 36.824 59.288 36.824C61.652 36.824 63.428 36.056 64.82 34.604C66.248 33.176 66.692 31.16 66.692 29.54C66.692 29.036 66.656 28.568 66.572 28.184H59.288V28.172Z" fill="white"/>
<path d="M124.172 21.5H118.808V36.5H121.052V30.812H124.184C126.668 30.812 129.104 29.012 129.104 26.156C129.104 23.3 126.668 21.5 124.184 21.5H124.172ZM124.232 28.736H121.052V23.588H124.232C125.912 23.588 126.86 24.98 126.86 26.156C126.86 27.332 125.912 28.724 124.232 28.724V28.736Z" fill="white"/>
<path d="M103.4 21.5H101.156V36.5H103.4V21.5Z" fill="white"/>
<path d="M113.66 29.852C113.24 28.712 111.944 26.6 109.292 26.6C106.64 26.6 104.48 28.664 104.48 31.7C104.48 34.556 106.64 36.8 109.544 36.8C111.884 36.8 113.24 35.372 113.792 34.544L112.052 33.38C111.476 34.232 110.684 34.796 109.544 34.796C108.404 34.796 107.588 34.28 107.072 33.248L113.9 30.428L113.672 29.852H113.66ZM106.7 31.556C106.64 29.588 108.224 28.58 109.364 28.58C110.252 28.58 111.008 29.024 111.26 29.66L106.7 31.556Z" fill="white"/>
<path d="M132.572 21.5H130.328V36.5H132.572V21.5Z" fill="white"/>
<path d="M147.92 33.404H147.848L145.184 26.9H142.772L146.768 35.996L144.488 41.048H146.828L152.984 26.9H150.488L147.92 33.404Z" fill="white"/>
<path d="M72.584 26.6C69.764 26.6 67.46 28.748 67.46 31.7C67.46 34.652 69.764 36.8 72.584 36.8C75.404 36.8 77.708 34.64 77.708 31.7C77.708 28.76 75.404 26.6 72.584 26.6ZM72.584 34.796C71.036 34.796 69.704 33.524 69.704 31.7C69.704 29.876 71.036 28.604 72.584 28.604C74.132 28.604 75.464 29.864 75.464 31.7C75.464 33.536 74.132 34.796 72.584 34.796Z" fill="white"/>
<path d="M138.068 26.576C136.448 26.576 134.768 27.296 134.072 28.868L136.064 29.696C136.484 28.868 137.276 28.592 138.104 28.592C139.256 28.592 140.444 29.288 140.456 30.524V30.68C140.048 30.452 139.184 30.104 138.116 30.104C135.968 30.104 133.796 31.28 133.796 33.476C133.796 35.48 135.548 36.776 137.516 36.776C139.016 36.776 139.856 36.104 140.372 35.312H140.444V36.476H142.604V30.728C142.604 28.064 140.612 26.576 138.044 26.576H138.068ZM137.792 34.796C137.06 34.796 136.04 34.424 136.04 33.524C136.04 32.372 137.312 31.928 138.416 31.928C139.4 31.928 139.868 32.144 140.456 32.432C140.288 33.824 139.088 34.808 137.792 34.808V34.796Z" fill="white"/>
<path d="M97.4841 27.74H97.4121C96.9081 27.14 95.9481 26.6 94.7241 26.6C92.1681 26.6 89.8281 28.844 89.8281 31.724C89.8281 34.604 92.1681 36.812 94.7241 36.812C95.9361 36.812 96.9081 36.272 97.4121 35.648H97.4841V36.38C97.4841 38.336 96.4401 39.38 94.7601 39.38C93.3921 39.38 92.5401 38.396 92.1921 37.568L90.2361 38.384C90.8001 39.74 92.2881 41.396 94.7601 41.396C97.3881 41.396 99.6081 39.848 99.6081 36.08V26.912H97.4841V27.74ZM94.9161 34.796C93.3681 34.796 92.0721 33.5 92.0721 31.724C92.0721 29.948 93.3681 28.616 94.9161 28.616C96.4641 28.616 97.6401 29.936 97.6401 31.724C97.6401 33.512 96.4401 34.796 94.9161 34.796Z" fill="white"/>
<path d="M83.768 26.6C80.948 26.6 78.644 28.748 78.644 31.7C78.644 34.652 80.948 36.8 83.768 36.8C86.588 36.8 88.892 34.64 88.892 31.7C88.892 28.76 86.588 26.6 83.768 26.6ZM83.768 34.796C82.22 34.796 80.888 33.524 80.888 31.7C80.888 29.876 82.22 28.604 83.768 28.604C85.316 28.604 86.648 29.864 86.648 31.7C86.648 33.536 85.316 34.796 83.768 34.796Z" fill="white"/>
<path d="M13.9879 12.38C13.9879 12.38 13.9639 12.476 13.9639 12.524V36.488C13.9639 36.488 13.9759 36.584 13.9879 36.632L26.1079 24.512L13.9879 12.392V12.38Z" fill="white"/>
<path d="M33.0322 17.576L19.2082 9.55999C18.6922 9.24799 18.0802 9.06799 17.4202 9.06799C16.0522 9.06799 14.8762 9.85999 14.3242 11.012L26.9602 23.648L33.0322 17.576Z" fill="white"/>
<path d="M39.7878 21.5H39.7758L34.0998 18.2L27.7998 24.5L34.1238 30.824L39.7638 27.572C40.8438 26.984 41.5758 25.844 41.5758 24.536C41.5758 23.228 40.8558 22.088 39.7758 21.512L39.7878 21.5Z" fill="white"/>
<path d="M14.3242 37.988C14.8762 39.14 16.0642 39.932 17.4202 39.932C18.0562 39.932 18.6562 39.764 19.1722 39.452L19.2082 39.428L33.0562 31.436L26.9602 25.34L14.3242 37.976V37.988Z" fill="white"/>
</g>
<defs>
<clipPath id="clip0_396_2563">
<rect x="0.5" y="0.5" width="165" height="48" rx="8" fill="white"/>
</clipPath>
</defs>
</svg>
