<svg width="24" height="20" viewBox="0 0 24 20" fill="none" xmlns="http://www.w3.org/2000/svg">
<path d="M14.5542 0.315626C14.0667 0.451563 11.3854 1.16875 8.60107 1.91406C2.95732 3.42813 3.28075 3.31563 3.28075 3.73281V3.93906L2.77919 4.06563C2.07607 4.24375 2.03857 4.29063 2.08075 4.9L2.11357 5.35469L1.912 5.40625C1.7995 5.43906 1.44794 5.53281 1.1245 5.62188C0.262003 5.85625 0.215128 5.95469 0.64169 6.63906C1.36825 7.81563 1.84638 9.24063 2.10888 10.9891C2.16044 11.3359 2.26357 12.2406 2.34325 13C2.50263 14.5469 2.58232 15.1422 2.72294 15.8594C2.91982 16.8531 3.28544 17.8656 3.70263 18.5828C4.22294 19.4688 4.99638 19.9328 5.95732 19.9375C6.39794 19.9375 6.47763 19.9188 12.637 18.2688C19.5183 16.4266 19.2792 16.5016 19.8042 15.9766C20.3198 15.4609 20.5448 14.8797 20.5401 14.0781C20.5401 13.4969 20.4745 13 20.3151 12.4C20.2542 12.1563 20.2026 11.9359 20.2026 11.9125C20.2026 11.875 20.4417 11.8703 20.9761 11.8891C21.8198 11.9172 21.9698 11.8938 22.1854 11.6922C22.4011 11.4953 22.4667 11.3313 22.4433 11.0359C22.4245 10.8109 22.3636 10.675 22.0308 10.1031L21.6464 9.43281L21.7589 9.25938C22.012 8.875 22.0495 8.3875 21.8479 7.99844C21.6417 7.58594 21.1167 7.29531 20.6714 7.3375L20.4464 7.36094L20.0151 6.61563C19.5183 5.75781 19.387 5.63125 18.9886 5.63125C18.5854 5.63125 18.4354 5.74375 18.1167 6.2875C17.962 6.55 17.8261 6.76094 17.812 6.76563C17.7745 6.76563 17.1183 5.35469 16.8651 4.72656C16.3073 3.35781 16.0776 2.34531 16.0448 1.12656C16.0073 -0.101561 16.0354 -0.0874996 14.5542 0.315626ZM15.2808 1.2625C15.2808 1.96563 15.4729 2.97813 15.8011 3.99063C16.0729 4.825 16.3401 5.46719 16.8839 6.58281L17.3573 7.55313L17.062 7.98438C16.5229 8.7625 16.2229 9.04375 15.3698 9.53594C14.812 9.86406 14.5542 10.0422 14.3854 10.225L14.1558 10.4734L11.5214 11.1813C10.0683 11.5656 8.83544 11.9125 8.77919 11.95C8.55888 12.0906 8.60575 12.475 8.85888 12.5781C8.97607 12.6297 9.26669 12.5594 11.3995 11.9922C12.7214 11.6359 13.8229 11.3453 13.8464 11.3406C13.8698 11.3406 13.8933 11.4391 13.9073 11.5703C13.9308 11.875 14.0386 12.2031 14.1839 12.4188C14.2495 12.5125 14.2917 12.5969 14.2823 12.6063C14.2589 12.6297 13.687 12.7844 11.2261 13.4453C9.35575 13.9422 9.29482 13.9609 9.23388 14.0828C9.10263 14.3219 9.27138 14.6406 9.5245 14.6406C9.5995 14.6406 10.8839 14.3125 12.3839 13.9094L15.1073 13.1828L15.4261 13.2391C15.787 13.3047 16.1995 13.2438 16.5136 13.0844C16.6167 13.0328 16.7011 13 16.7104 13.0094C16.7151 13.0188 16.8886 13.3094 17.0854 13.6563C17.5636 14.4813 17.6339 14.5703 17.9339 14.7156C18.3792 14.9313 18.9042 14.8609 19.3026 14.5281C19.5511 14.3172 19.5229 14.2234 18.8901 13.1266C18.5339 12.5078 18.3511 12.1469 18.3886 12.1328C18.5198 12.0813 19.1433 11.9688 19.2698 11.9688C19.4339 11.9688 19.4573 12.0109 19.6214 12.6953C19.762 13.2813 19.8276 14.0547 19.7761 14.4438C19.6964 15.0063 19.2979 15.5641 18.7964 15.7984C18.6792 15.8547 16.4948 16.4594 13.9401 17.1438C11.3854 17.8281 9.06513 18.4516 8.78388 18.5266C8.50263 18.6016 8.26825 18.6578 8.26357 18.6531C8.25888 18.6484 8.30575 18.5172 8.36669 18.3625C8.61982 17.7391 8.6245 16.9188 8.38544 15.8453C8.137 14.7156 7.78544 13.8859 6.40732 11.1578C5.83544 10.0188 5.25888 8.85156 5.137 8.57031C4.64482 7.45 4.30732 6.4 4.14325 5.49063C4.06825 5.07344 3.99794 3.90625 4.04482 3.90625C4.07763 3.90625 8.60575 2.69688 12.7026 1.59063C14.0808 1.22031 15.2245 0.910938 15.2479 0.910938C15.2667 0.906252 15.2808 1.06563 15.2808 1.2625ZM3.32763 4.98906C3.32763 5.42031 3.55732 6.44688 3.84794 7.32813C4.162 8.275 4.537 9.09531 5.69013 11.3828C7.11044 14.1953 7.44794 15.0063 7.68232 16.1641C7.93075 17.3969 7.83232 18.0672 7.32607 18.6297C6.77763 19.2391 5.737 19.3797 5.01982 18.9391L4.85575 18.8406L5.08075 18.7844C5.61044 18.6484 6.14013 18.2453 6.36513 17.8C6.57138 17.3922 6.62294 17.1016 6.59482 16.45C6.54325 15.0391 6.16357 13.8625 4.71982 10.6094C3.9745 8.92188 3.562 7.89531 3.28544 7.02344C3.08388 6.39063 2.87763 5.45781 2.8495 5.05938L2.83544 4.825L3.04638 4.77344C3.29013 4.7125 3.32763 4.73594 3.32763 4.98906ZM2.29638 6.30625C2.587 7.45938 3.05575 8.69688 4.07763 11.0078C5.42763 14.0641 5.78388 15.1469 5.84482 16.3984C5.87294 17.0313 5.83544 17.2422 5.62919 17.5469C5.37607 17.9219 4.8745 18.1469 4.44325 18.0813C4.26044 18.0484 4.24638 18.0344 4.09169 17.6969C3.84794 17.1719 3.58544 16.3328 3.4495 15.6484C3.31357 14.95 3.23857 14.3828 3.06982 12.7422C2.76513 9.775 2.44638 8.45313 1.63544 6.87344C1.45732 6.52188 1.38232 6.33438 1.41982 6.32031C1.58857 6.26406 2.14169 6.11406 2.18857 6.11406C2.22138 6.10938 2.26825 6.19844 2.29638 6.30625ZM20.3854 8.74844C21.1073 10.0094 21.7026 11.0688 21.7026 11.1063C21.7026 11.1766 21.4683 11.1953 21.3183 11.1344C21.2714 11.1156 20.9433 10.5953 20.587 9.97656C20.2308 9.35781 19.6636 8.37344 19.3261 7.79219L18.712 6.72813L18.8292 6.53125C18.9276 6.36719 18.9604 6.34375 19.0073 6.4C19.0401 6.43281 19.6589 7.49219 20.3854 8.74844ZM19.3401 9.31094C19.9073 10.2953 20.3714 11.1063 20.3714 11.1063C20.3667 11.1109 20.0761 11.1391 19.7198 11.1672C19.3636 11.1953 18.8714 11.2656 18.6183 11.3172C18.3698 11.3734 18.112 11.425 18.0464 11.4391C17.9386 11.4578 17.887 11.3922 17.3667 10.4828L16.8042 9.50781L17.1933 9.04375C17.4042 8.78594 17.7323 8.33594 17.9198 8.04531C18.1073 7.75469 18.2667 7.51563 18.2808 7.51563C18.2948 7.51563 18.7683 8.32188 19.3401 9.31094ZM21.112 8.27031C21.187 8.35938 21.2339 8.47188 21.2339 8.56094C21.2339 8.70625 21.2292 8.70156 21.0698 8.43906C20.9808 8.28906 20.9058 8.15781 20.9058 8.14375C20.9058 8.08281 21.0042 8.14375 21.112 8.27031ZM16.7245 10.8719C17.1933 11.6781 17.2495 11.7953 17.1792 11.8422C17.1417 11.875 16.8604 12.0344 16.5558 12.2031C16.0495 12.4844 15.9886 12.5078 15.7261 12.5078C15.112 12.5031 14.662 12.0484 14.6667 11.4438C14.6667 11.1063 14.8026 10.7969 15.0183 10.6375C15.1683 10.5203 16.1292 9.95313 16.1714 9.95313C16.1854 9.95313 16.4339 10.3656 16.7245 10.8719ZM18.1167 13.2813C18.3745 13.7313 18.5433 14.0688 18.5151 14.0969C18.4917 14.1203 18.4026 14.1016 18.2995 14.05C18.1542 13.975 18.0651 13.8531 17.7604 13.3281C17.5589 12.9813 17.3901 12.6719 17.3901 12.6391C17.3901 12.5734 17.5308 12.4797 17.6151 12.4984C17.6433 12.5031 17.8729 12.8547 18.1167 13.2813Z" fill="white"/>
<path d="M10.3214 3.60156C8.84489 4 7.59801 4.34688 7.54645 4.375C7.38239 4.46406 7.20895 4.74063 7.18551 4.95156C7.17145 5.10156 7.31207 5.69219 7.79957 7.51563C8.1652 8.87031 8.47457 9.92969 8.52145 10C8.67145 10.2016 8.90114 10.3281 9.11676 10.3281C9.37457 10.3281 14.6855 8.90313 14.8871 8.78125C15.0464 8.67813 15.2339 8.35469 15.2339 8.17656C15.2339 7.98438 13.9636 3.32031 13.8793 3.20313C13.7246 2.9875 13.5089 2.875 13.2464 2.87969C13.0918 2.87969 12.0511 3.1375 10.3214 3.60156ZM13.3308 3.86875C13.5089 4.50156 13.8324 5.74375 13.8183 5.75781C13.8089 5.76719 13.5839 5.59375 13.3121 5.37813C12.7871 4.96094 12.623 4.9 12.4308 5.06406C12.3793 5.11094 12.0793 5.55625 11.7652 6.04844C11.4511 6.54531 11.1746 6.95313 11.1511 6.95313C11.1277 6.95313 10.8558 6.78438 10.5418 6.57813C10.2324 6.37188 9.93239 6.20313 9.88082 6.20313C9.71207 6.20313 9.61364 6.29688 9.1402 6.90625C8.6902 7.48281 8.5777 7.60938 8.5777 7.53906C8.5777 7.52031 8.4277 6.95781 8.24957 6.2875C8.06676 5.6125 7.93082 5.05469 7.94489 5.03594C7.9777 5.00313 13.0683 3.63438 13.1808 3.62969C13.2371 3.625 13.2793 3.69531 13.3308 3.86875ZM13.5464 6.51719L14.1793 7.02344L14.3293 7.58594C14.4136 7.89531 14.4746 8.15313 14.4652 8.15781C14.4277 8.19531 9.20582 9.57813 9.16364 9.55938C9.08864 9.53125 8.8402 8.50938 8.89176 8.44375C8.91989 8.41094 9.16364 8.09219 9.4402 7.73594C9.75895 7.33281 9.9652 7.10313 9.99801 7.12656C10.2277 7.25781 10.7339 7.61875 10.7339 7.64688C10.7339 7.66563 10.6824 7.75938 10.6168 7.85313C10.4152 8.15313 10.4996 8.44844 10.8089 8.52813C11.0011 8.575 11.1277 8.44375 11.6339 7.65625C12.7871 5.85156 12.7402 5.9125 12.8293 5.96406C12.8761 5.9875 13.1996 6.24063 13.5464 6.51719Z" fill="white"/>
<path d="M10.5234 5.38281C10.4344 5.46719 10.4062 5.54688 10.4062 5.6875C10.4062 5.95 10.5656 6.10938 10.8281 6.10938C11.0906 6.10938 11.25 5.95 11.25 5.6875C11.25 5.425 11.0906 5.26562 10.8281 5.26562C10.6875 5.26562 10.6078 5.29375 10.5234 5.38281Z" fill="white"/>
<path d="M13.5701 14.9918C11.7138 15.4934 10.1154 15.9246 10.0169 15.9528C9.67476 16.0512 9.62788 16.4731 9.93726 16.6465C10.0498 16.7121 10.3029 16.6512 13.3357 15.8403C15.1404 15.3575 16.7576 14.9215 16.931 14.87C17.2638 14.7715 17.3904 14.659 17.3904 14.4621C17.3904 14.3309 17.1513 14.0778 17.0294 14.0825C16.9826 14.0825 15.4263 14.495 13.5701 14.9918Z" fill="white"/>
<path d="M21.3047 5.64036C21.2484 5.65911 21.1828 5.71067 21.15 5.74817C21.075 5.83724 20.9062 6.41849 20.9062 6.58255C20.9062 6.88255 21.2625 7.04661 21.4875 6.84974C21.6141 6.74192 21.7969 6.21692 21.7969 5.9638C21.7969 5.8513 21.6469 5.64036 21.5625 5.64036C21.5438 5.64036 21.4969 5.63099 21.4594 5.62161C21.4266 5.60755 21.3563 5.61692 21.3047 5.64036Z" fill="white"/>
<path d="M22.5691 7.07917C22.2691 7.26198 22.1894 7.33229 22.1519 7.45417C22.1003 7.63698 22.2034 7.81979 22.3956 7.89479C22.5034 7.93698 22.5691 7.92292 22.8222 7.79167C23.2581 7.56667 23.3894 7.44479 23.3894 7.25729C23.3894 7.0651 23.2675 6.9151 23.0847 6.88229C22.9722 6.85885 22.8644 6.90104 22.5691 7.07917Z" fill="white"/>
<path d="M22.4344 8.83207C22.3406 8.90707 22.3125 8.96801 22.3125 9.10395C22.3125 9.33364 22.4391 9.44614 22.8094 9.54457C23.2266 9.66176 23.4094 9.6477 23.5266 9.50239C23.7516 9.21176 23.5875 8.9727 23.0578 8.83207C22.6219 8.7102 22.5891 8.7102 22.4344 8.83207Z" fill="white"/>
</svg>
