<svg width="104" height="101" viewBox="0 0 104 101" fill="none" xmlns="http://www.w3.org/2000/svg">
<path d="M56.4055 13.417C47.4649 36.9613 72.2751 58.5685 94.2542 46.2748V72.2778C94.2542 75.3326 89.1133 79.7286 85.9841 79.8031L46.2728 79.9521L19.4509 100.367C18.4823 101.261 15.5021 99.7711 15.5021 98.8025V79.8776H8.27513C4.17734 79.8776 0.675595 74.4385 0.377574 70.6387C-0.81451 54.8431 1.27164 37.6319 0.452079 21.6873C0.377574 18.6325 5.0714 13.417 7.97711 13.417H56.4055ZM14.0865 25.9342C12.1494 27.1264 12.8945 29.0635 15.0551 29.2126H50.5941C52.7548 29.0635 53.2018 26.0832 50.8921 25.7852L14.0865 25.9342ZM57.6721 41.5063C58.7152 40.4632 57.6721 38.526 56.2565 38.526L13.6395 38.824C12.2984 40.0161 12.969 41.7298 14.6826 41.8788C28.019 40.9847 42.771 42.9964 55.9585 41.8788C56.4055 41.9533 57.2996 41.8788 57.6721 41.5063ZM14.012 54.6941H81.0667C81.6628 54.6941 82.4823 52.3099 80.8432 51.5648L13.9375 51.6393C12.5219 52.0118 12.8945 54.3961 14.012 54.6941ZM14.0865 64.4546C12.1494 65.7212 12.8199 67.5094 15.0551 67.7329C19.8979 68.3289 25.8584 67.2858 30.7757 67.7329C32.7873 67.5839 33.0854 64.8271 31.1482 64.38L14.0865 64.4546ZM80.6942 64.4546H37.1087C36.2891 64.4546 35.097 67.5094 38.7478 67.8074C51.7117 68.9995 66.4637 66.9133 79.6511 67.8074C81.8118 68.0309 82.7059 64.7526 80.6942 64.4546Z" fill="#FD7000"/>
<path d="M78.4594 0.154675C110.869 -3.12365 113.179 46.7963 81.0671 46.9453C51.7866 47.0943 49.4024 3.06046 78.4594 0.154675ZM79.6515 21.9108C78.0124 23.55 76.2243 27.7224 79.428 28.4675C82.7062 29.2126 82.2592 26.5303 83.7493 24.8911C86.059 22.3579 90.1568 21.4638 90.5293 16.8443C91.1998 8.42499 78.2359 6.18977 73.2441 11.5543C71.8285 13.119 70.0404 17.5894 72.9461 18.111C76.8948 18.856 76.1498 16.0247 77.7889 14.2366C79.279 12.5974 82.5572 12.6719 83.8238 14.6091C86.208 18.0364 81.5142 20.0481 79.6515 21.9108ZM79.13 31.9693C76.1498 32.8634 76.5968 38.973 80.9926 38.228C85.3139 37.4084 83.8983 30.5537 79.13 31.9693Z" fill="#B80000"/>
<path d="M14.0121 54.6942C12.8945 54.3962 12.522 52.012 13.9376 51.6394L80.7688 51.5649C82.4079 52.31 81.6628 54.6942 80.9923 54.6942H14.0121Z" fill="white"/>
<path d="M80.6945 64.4546C82.6316 64.7526 81.8121 68.0309 79.7259 67.8074C66.5385 66.9133 51.7865 68.9995 38.8226 67.8074C35.1718 67.5094 36.2894 64.4546 37.1835 64.4546H80.6945Z" fill="white"/>
<path d="M57.672 41.5065C57.2995 41.879 56.48 41.879 55.9584 41.9536C42.771 43.0712 28.019 41.0595 14.6825 41.9536C13.0434 41.8045 12.3729 40.0164 13.6394 38.8988L56.2564 38.6007C57.672 38.5262 58.7151 40.4634 57.672 41.5065Z" fill="white"/>
<path d="M14.0869 25.9344L50.8925 25.8599C53.1276 26.0834 52.6806 29.1382 50.5945 29.2872H15.0555C12.8203 29.0637 12.0752 27.052 14.0869 25.9344Z" fill="white"/>
<path d="M14.0864 64.4544L31.0736 64.3799C33.0852 64.7524 32.7872 67.5837 30.7011 67.7327C25.7092 67.3602 19.8233 68.3288 14.9805 67.7327C12.7453 67.5092 12.0748 65.721 14.0864 64.4544Z" fill="white"/>
<path d="M79.651 21.9108C81.5136 20.0482 86.2074 18.0365 83.8978 14.6091C82.6312 12.6719 79.3529 12.6719 77.8628 14.2366C76.2237 15.9503 76.9688 18.856 73.02 18.111C70.1143 17.5149 71.8279 13.0445 73.318 11.5543C78.3099 6.2643 91.2738 8.42501 90.6032 16.8443C90.2307 21.4638 86.1329 22.2834 83.8233 24.8911C82.3332 26.5303 82.8547 29.2126 79.502 28.4675C76.2237 27.7224 78.0119 23.6245 79.651 21.9108Z" fill="#FFBF00"/>
<path d="M79.1296 31.9692C83.9725 30.5536 85.3136 37.4083 80.9923 38.2278C76.5964 38.9729 76.0749 32.8633 79.1296 31.9692Z" fill="#FFBF00"/>
</svg>
