<svg width="66" height="95" viewBox="0 0 66 95" fill="none" xmlns="http://www.w3.org/2000/svg">
<path d="M26.8482 0.556449C4.88815 4.56645 -6.26187 28.3265 3.63813 46.6065C12.3381 62.6665 22.6181 77.8765 32.5881 94.0965C40.4081 81.6565 47.8981 69.8865 55.2181 58.0065C58.1681 53.2165 61.4581 48.4465 63.3081 43.2165C71.6581 19.6265 51.4882 -3.94355 26.8482 0.556449Z" fill="#FF8003"/>
<path d="M32.5881 57.2366C47.3673 57.2366 59.3481 45.6587 59.3481 31.3766C59.3481 17.0945 47.3673 5.5166 32.5881 5.5166C17.809 5.5166 5.82812 17.0945 5.82812 31.3766C5.82812 45.6587 17.809 57.2366 32.5881 57.2366Z" fill="#F2F2F2"/>
<path fill-rule="evenodd" clip-rule="evenodd" d="M36.098 10.3564L28.6479 16.6664L37.0779 14.3464L36.098 10.3564Z" fill="#EB2027"/>
<path fill-rule="evenodd" clip-rule="evenodd" d="M14.8579 28.3665L24.1079 41.2465L16.538 26.9365L14.8579 28.3665Z" fill="#EB2027"/>
<path fill-rule="evenodd" clip-rule="evenodd" d="M42.8179 37.6064L43.0079 46.5164L44.9579 46.3164L42.8179 37.6064Z" fill="#EB2027"/>
<path fill-rule="evenodd" clip-rule="evenodd" d="M15.0879 19.6864L29.1678 52.3864L41.1279 50.7364L43.5679 14.7764L15.0879 19.6864Z" fill="#FF8003"/>
<path fill-rule="evenodd" clip-rule="evenodd" d="M24.1181 25.6463C27.0581 23.9963 30.1981 23.2863 33.3881 22.8363C35.0281 22.6063 35.5382 21.6563 33.2182 21.3563C28.9082 20.7863 26.2181 20.7363 23.2481 24.1263C22.4081 25.0863 22.8881 26.3263 24.1181 25.6463Z" fill="white"/>
<path fill-rule="evenodd" clip-rule="evenodd" d="M34.8278 41.7166C36.2978 40.5466 35.4078 39.1766 34.1478 40.3966C32.8378 41.6866 30.3878 40.9966 28.8478 40.1166C27.7078 39.4666 28.1978 40.4966 28.7578 40.9466C30.2578 42.1166 32.9778 43.2066 34.8278 41.7166Z" fill="white"/>
<path fill-rule="evenodd" clip-rule="evenodd" d="M35.3077 46.6066C35.2977 46.6066 34.4677 46.5666 34.4177 46.5566C34.3177 46.5266 34.2177 46.4966 34.1177 46.4766C33.9777 46.4566 33.8478 46.4266 33.7078 46.4366C33.5578 46.4466 33.4077 46.4566 33.2577 46.4466C33.4477 46.4066 33.5977 46.3766 33.6277 46.3766C33.6377 46.3766 33.8977 46.3466 34.1177 46.2766C34.1577 46.2766 34.2077 46.2566 34.2477 46.2366C34.3277 46.2166 34.4078 46.1766 34.4578 46.1266C34.6778 45.9466 34.7578 45.7266 34.5878 45.4466C34.5478 45.3666 34.4777 45.2866 34.3677 45.2266C34.3077 45.1966 34.2577 45.1566 34.1977 45.1266C34.1577 45.0966 34.0977 45.0666 34.0577 45.0366C33.9177 44.9666 33.7578 44.8966 33.5378 44.8766H33.4977C33.4777 44.8766 33.4177 44.8666 33.3077 44.8366H33.3478C33.5878 44.7766 33.8277 44.6766 34.0477 44.5766C34.4777 44.3766 34.7778 44.1266 34.7778 43.8066V43.7966C34.7578 43.4066 34.4577 43.2566 34.0577 43.2266C34.0277 43.2166 34.0177 43.2166 33.9877 43.2166C33.9177 43.2166 33.8677 43.2066 33.8077 43.2066C33.5077 43.2066 33.1677 43.2566 33.0477 43.2666C32.8077 43.2766 32.4878 43.2566 32.1578 43.1866C31.9378 43.1466 31.7178 43.0866 31.5278 43.0066C31.4378 42.9766 31.3478 42.9366 31.2678 42.8866C31.1978 42.8466 31.1378 42.8166 31.0878 42.7666C30.9078 42.6266 30.6777 42.6967 30.5677 42.8967C30.4577 43.1167 30.5077 43.3966 30.6777 43.5266H30.6877C30.7677 43.6066 30.8678 43.6666 30.9678 43.7266C31.0778 43.7666 31.1877 43.8266 31.2977 43.8766C31.5877 43.9766 31.9078 44.0566 32.2078 44.1066C32.2778 44.1166 32.3478 44.1267 32.4078 44.1467C32.3278 44.1667 32.2578 44.1766 32.2078 44.1966C32.0878 44.2166 32.0077 44.2366 31.9777 44.2466C31.7577 44.2566 31.6278 44.2966 31.5378 44.3566C31.0778 44.6666 31.1478 44.9666 31.5878 45.2366C31.6778 45.2966 31.7877 45.3567 31.9377 45.3967C32.0377 45.4367 32.1478 45.4666 32.2678 45.5066C32.4478 45.5666 32.6578 45.6166 32.8478 45.6566C32.6478 45.6966 32.4578 45.7666 32.2878 45.8166C32.2778 45.8166 32.2478 45.8166 32.2178 45.8366C32.0878 45.8966 31.9477 45.9666 31.8577 46.0366C31.6077 46.2466 31.5377 46.5166 31.7277 46.8166C31.7877 46.9266 31.8977 47.0166 32.0477 47.0966C32.1477 47.1366 32.2378 47.1666 32.3378 47.2066C32.5278 47.2566 32.7078 47.2966 32.8978 47.3166C33.1878 47.3666 33.4577 47.3666 33.7577 47.3466C33.8677 47.3366 34.0177 47.3666 34.1677 47.4066C34.2077 47.4166 34.2478 47.4366 34.2778 47.4366C34.3678 47.4566 35.2977 47.5166 35.3577 47.5166C35.5577 47.5066 35.7278 47.2966 35.7178 47.0366C35.6978 46.7766 35.5177 46.5866 35.3077 46.6066Z" fill="white"/>
<path fill-rule="evenodd" clip-rule="evenodd" d="M38.7882 27.5163C36.9282 25.9863 33.7282 26.1463 31.6482 26.9063C30.1182 27.4763 30.4282 28.5863 31.9482 28.3463C32.7182 28.2363 33.4982 28.1863 34.2682 28.2063C36.1482 28.2763 35.9482 29.1263 34.3682 29.6563C32.2882 30.3663 30.0782 30.5163 27.8382 30.3963C24.8082 30.2363 24.7782 28.7963 27.4282 27.2363C30.4182 25.5063 33.9582 25.3263 37.5582 25.3063C39.6982 25.3163 38.9081 23.9663 37.3581 23.7563C33.2081 23.1963 26.8382 23.4063 23.4282 26.8563C21.5782 28.7363 21.3581 30.2463 23.7981 31.6363C25.1781 32.4363 27.3182 32.9363 30.5982 33.0363C32.6382 32.9263 34.7282 32.9463 36.5182 32.3163C34.3882 35.7563 29.0581 35.1963 25.9181 34.0663C23.8481 33.3063 24.6981 34.7963 25.7281 35.3763C27.9681 36.6363 31.7682 37.6463 34.9682 36.3863C33.2782 39.1063 29.2182 38.0063 26.7582 36.6163C25.1282 35.6763 25.8282 37.1663 26.6282 37.8263C28.9082 39.6263 33.1282 41.3463 35.7882 38.6763C36.5382 37.9263 37.1382 36.8263 35.9482 35.9163C36.5682 35.5563 37.1482 35.1063 37.6882 34.5363C38.5582 33.5963 38.8281 32.5263 37.5481 31.8863C37.8381 31.7263 38.1182 31.5463 38.3882 31.3363C39.8282 30.2263 40.5082 28.9163 38.7882 27.5163Z" fill="white"/>
</svg>
