<svg width="113" height="77" viewBox="0 0 113 77" fill="none" xmlns="http://www.w3.org/2000/svg">
<path d="M110.863 40.0182V38.2469H110.725C110.219 34.6492 108.152 31.5496 105.258 30.1658L100.02 27.7304L94.0472 2.60139C93.7256 1.27299 92.7148 0.332031 91.5662 0.332031H75.2101C73.7859 0.332031 72.6373 1.71579 72.6373 3.43165V38.1916H70.0644V3.87445C70.0644 1.88184 68.732 0.332031 67.124 0.332031H3.12401C1.47003 0.332031 0.183594 1.93719 0.183594 3.87445V59.28H10.8885C12.5425 55.9037 15.6208 53.579 19.1125 53.579C22.6043 53.579 25.6825 55.8483 27.3365 59.28H82.1017C83.7557 55.9037 86.834 53.579 90.3257 53.579C93.8175 53.579 96.8957 55.8483 98.5497 59.28H105.074V53.579H110.817L110.863 40.0182ZM75.4399 6.36521C75.4399 5.75636 75.8534 5.2582 76.4047 5.2582H90.4176C90.8311 5.2582 91.1987 5.59031 91.3365 6.08846L95.7931 25.5164C95.9768 26.2913 95.4715 27.0662 94.8282 27.0662H76.2669C75.7155 27.0662 75.2561 26.5127 75.2561 25.8485L75.4399 6.36521Z" fill="#FD7000"/>
<path d="M70.0184 61.4941H27.7959C28.3013 62.8225 28.5769 64.2063 28.6229 65.7561H80.7693C80.8153 64.2617 81.1369 62.8225 81.5963 61.4941H70.0184Z" fill="#A71F22"/>
<path d="M99.8827 65.7559H103.328C104.293 65.7559 105.074 64.815 105.074 63.6526C105.074 62.4903 104.293 61.5493 103.328 61.5493H99.0557C99.5151 62.8224 99.8367 64.2615 99.8827 65.7559Z" fill="#A71F22"/>
<path d="M2.34353 65.7561H9.55674C9.60268 64.2617 9.92429 62.8225 10.3837 61.4941H2.34353C1.3787 61.4941 0.597656 62.4351 0.597656 63.5975C0.597656 64.8152 1.3787 65.7561 2.34353 65.7561Z" fill="#A71F22"/>
<path d="M26.5097 61.494C26.4178 61.3279 26.326 61.1619 26.2341 60.9405C26.1422 60.7744 26.0503 60.6084 25.9584 60.387C24.4422 57.8409 21.9613 56.125 19.1587 56.125C16.3561 56.125 13.8751 57.7855 12.359 60.387C12.2671 60.553 12.1752 60.7191 12.0833 60.9405C11.9914 61.1065 11.8995 61.2726 11.8076 61.494C11.2563 62.767 10.8888 64.2061 10.8428 65.7559C10.8428 65.922 10.7969 66.088 10.7969 66.3094C10.7969 66.4755 10.7969 66.6415 10.8428 66.8629C11.0725 72.1766 14.7481 76.4385 19.2046 76.4385C23.6612 76.4385 27.3367 72.1766 27.5664 66.8629C27.5664 66.6969 27.6124 66.5308 27.6124 66.3094C27.6124 66.1434 27.6124 65.9773 27.5664 65.7559C27.4286 64.2615 27.0611 62.767 26.5097 61.494ZM22.7423 66.8076C22.5126 68.9663 20.9964 70.6821 19.1127 70.6821C17.229 70.6821 15.7129 68.9663 15.4832 66.8076C15.4832 66.6415 15.4372 66.4755 15.4372 66.2541C15.4372 66.088 15.4832 65.922 15.4832 65.7006C15.7129 63.5419 17.229 61.8261 19.1127 61.8261C20.9964 61.8261 22.5126 63.5419 22.7423 65.7006C22.7423 65.8666 22.7883 66.0327 22.7883 66.2541C22.7883 66.4755 22.7423 66.6415 22.7423 66.8076Z" fill="#525252"/>
<path d="M19.1128 63.3208C17.9183 63.3208 16.9075 64.3725 16.6778 65.7562C16.6318 65.9223 16.6318 66.0883 16.6318 66.3097C16.6318 66.4758 16.6318 66.6418 16.6778 66.8632C16.9075 68.247 17.9183 69.2986 19.1128 69.2986C20.3074 69.2986 21.3181 68.247 21.5478 66.8632C21.5938 66.6972 21.5938 66.5311 21.5938 66.3097C21.5938 66.1437 21.5938 65.9776 21.5478 65.7562C21.3181 64.3725 20.3533 63.3208 19.1128 63.3208Z" fill="#FFBF00"/>
<path d="M97.7226 61.494C97.6307 61.3279 97.5388 61.1619 97.4469 60.9405C97.3551 60.7744 97.2632 60.6084 97.1713 60.387C95.6551 57.8409 93.1742 56.125 90.3716 56.125C87.569 56.125 85.088 57.7855 83.5719 60.387C83.48 60.553 83.3881 60.7191 83.2962 60.9405C83.2043 61.1065 83.1124 61.2726 83.0205 61.494C82.4692 62.767 82.1016 64.2061 82.0557 65.7559C82.0557 65.922 82.0098 66.088 82.0098 66.3094C82.0098 66.4755 82.0098 66.6415 82.0557 66.8629C82.2854 72.1766 85.961 76.4385 90.4175 76.4385C94.8741 76.4385 98.5496 72.1766 98.7793 66.8629C98.7793 66.6969 98.8253 66.5308 98.8253 66.3094C98.8253 66.1434 98.8253 65.9773 98.7793 65.7559C98.6415 64.2615 98.2739 62.767 97.7226 61.494ZM93.9552 66.8076C93.7255 68.9663 92.2093 70.6821 90.3256 70.6821C88.4419 70.6821 86.9258 68.9663 86.6961 66.8076C86.6961 66.6415 86.6501 66.4755 86.6501 66.2541C86.6501 66.088 86.6961 65.922 86.6961 65.7006C86.9258 63.5419 88.4419 61.8261 90.3256 61.8261C92.2093 61.8261 93.7255 63.5419 93.9552 65.7006C93.9552 65.8666 94.0011 66.0327 94.0011 66.2541C94.0011 66.4755 93.9552 66.6415 93.9552 66.8076Z" fill="#525252"/>
<path d="M90.3257 63.3208C89.1312 63.3208 88.1204 64.3725 87.8907 65.7562C87.8447 65.9223 87.8447 66.0883 87.8447 66.3097C87.8447 66.4758 87.8447 66.6418 87.8907 66.8632C88.1204 68.247 89.1312 69.2986 90.3257 69.2986C91.5202 69.2986 92.531 68.247 92.7607 66.8632C92.8067 66.6972 92.8067 66.5311 92.8067 66.3097C92.8067 66.1437 92.8067 65.9776 92.7607 65.7562C92.577 64.3725 91.5662 63.3208 90.3257 63.3208Z" fill="#FFBF00"/>
<path d="M111.001 55.793H105.993V65.756H111.001C111.093 65.756 111.185 65.7007 111.277 65.7007C112.058 65.5346 112.655 64.7597 112.655 63.7634V57.8409C112.655 56.7339 111.92 55.793 111.001 55.793Z" fill="#A71F22"/>
<mask id="mask0_2445_1508" style="mask-type:luminance" maskUnits="userSpaceOnUse" x="0" y="0" width="109" height="61">
<path d="M108.198 40.9592V39.188H108.06C107.555 35.6455 105.579 32.6013 102.731 31.2729L97.631 28.8928L91.7961 4.15127C91.4745 2.82286 90.5097 1.93726 89.3611 1.93726H73.3726C71.9942 1.93726 70.8456 3.32101 70.8456 4.98152L71.6726 39.0219L69.9268 38.8005L69.0538 5.20292C69.0538 3.26566 67.7215 2.04796 66.1134 2.15866L12.0833 0C11.4401 0 6.66188 0.1107 3.72146 0.1107C0.22972 0.1107 0.137832 2.76751 0.137832 3.87452L0 39.1326V59.9996L10.8428 59.2801C12.6805 55.9037 15.0696 54.2986 18.5154 54.2986C21.9612 54.2986 25.3611 56.734 26.9691 60.055L68.2728 59.889H80.0804C81.7344 56.5679 84.7207 54.2986 88.1206 54.2986C91.5205 54.2986 94.5528 56.5679 96.1608 59.889H102.547V54.2986H108.152L108.198 40.9592ZM73.6482 7.85973C73.6482 7.25088 74.0617 6.75273 74.5671 6.75273H88.2584C88.6719 6.75273 89.0395 7.08483 89.1314 7.58298L93.4501 26.6788C93.6339 27.4537 93.1285 28.1733 92.4853 28.1733H74.3374C73.7861 28.1733 73.3266 27.6198 73.3726 26.9556L73.6482 7.85973Z" fill="white"/>
</mask>
<g mask="url(#mask0_2445_1508)">
<path fill-rule="evenodd" clip-rule="evenodd" d="M5.19129 80.4794C12.0369 79.7045 12.0369 72.4536 5.74262 73.948C-0.827375 75.5532 -6.93793 67.0846 -9.87834 60.1105C-16.0808 49.7046 -9.4189 82.8594 5.19129 80.4794Z" fill="white"/>
<path fill-rule="evenodd" clip-rule="evenodd" d="M45.6227 37.5276C40.477 15.7749 1.42457 10.8488 30.4612 29.1697C36.0664 33.9852 33.7692 36.642 27.8883 34.8154C20.1238 32.4354 13.0484 27.6199 6.47841 21.8081C-2.43472 13.8377 0.321918 8.41337 11.4863 9.07757C24.075 9.90782 35.2394 17.8229 46.22 26.4022C52.744 31.6051 53.0197 24.6863 48.701 20.203C37.169 8.13662 17.2753 -6.47584 0.000310898 -1.93712C-9.41821 0.498286 -13.0478 5.59051 -8.40744 16.6606C-4.13465 28.2288 16.3564 45.8301 29.0829 49.926C15.7132 57.509 0.55164 42.5645 -6.75346 30.7749C-18.1476 16.1071 -6.43185 56.3467 16.2645 61.2175C5.69737 67.1953 -4.54815 53.3024 -9.28038 42.2324C-12.4046 34.8154 -13.2316 42.011 -12.083 46.3836C-8.72905 58.5607 0.735415 75.1104 14.197 71.6787C17.9644 70.6824 22.0075 68.0809 20.2157 61.8263C25.5452 62.2691 37.5825 60.3319 33.1259 50.7563C40.2473 51.3098 48.8388 48.819 45.6227 37.5276Z" fill="white"/>
</g>
<path d="M77.5992 48.0991H49.4355V55.7928H77.5992V48.0991Z" fill="#FFBF00"/>
</svg>
