<svg width="96" height="93" viewBox="0 0 96 93" fill="none" xmlns="http://www.w3.org/2000/svg">
<path d="M21.4999 33.6875C21.4999 33.6875 26.3313 60.4649 59.8492 61.3951L60.2719 75.2822L16.4873 73.0231L2.35547 67.5081V41.9931L11.1728 37.0098L21.4999 33.6875Z" fill="white"/>
<path d="M44.9321 58.8703C43.7846 58.4717 42.5767 58.0066 41.4897 57.475C41.4293 57.475 41.3689 57.4086 41.3085 57.4086H8.03221V52.0929H32.8535C32.7932 52.0265 32.7328 51.96 32.612 51.8936C30.0151 49.7009 27.841 47.2424 26.0292 44.5846H8.03221V39.269H23.2511C22.466 37.4085 21.9225 35.5481 21.5601 33.6212C21.5601 33.5547 21.5601 33.5547 21.4997 33.4883H2.05335C0.966281 33.4883 0.0603926 34.485 0 35.681V74.2856C0 75.0165 0.301962 75.681 0.785103 76.0796C1.14746 76.3454 1.57021 76.5448 1.99295 76.5448H7.3075C8.57574 76.5448 9.66281 77.6743 9.7232 79.0032C9.7232 79.0697 9.7232 79.1361 9.7232 79.1361V92.0929L11.4746 90.764L12.6824 89.8338L28.8072 77.1428C29.23 76.8105 29.7131 76.6112 30.1963 76.6112H58.46C59.2451 76.6112 59.9698 76.0796 60.2718 75.3488C60.3926 75.083 60.4529 74.7507 60.4529 74.4185V61.3953C60.2114 61.3953 60.0302 61.3953 59.849 61.3953C54.7157 61.3953 49.7031 60.5315 44.9321 58.8703ZM8.03221 70.166V64.8504H52.5415V70.166H8.03221Z" fill="#FD7000"/>
<path d="M88.2941 45.3156C88.5961 44.9834 88.8981 44.7176 89.1396 44.3854C92.7632 40.3322 94.9977 35.5482 95.6016 30.5648C95.7224 29.701 95.7828 28.7708 95.7828 27.907C95.7828 26.0465 95.5412 24.186 95.1185 22.392C94.8165 21.196 94.3938 20 93.9106 18.804C93.6691 18.2724 93.4275 17.7409 93.1859 17.2093C92.3404 15.5482 91.3138 13.9535 90.1059 12.4917C88.898 11.0299 87.509 9.56811 85.9388 8.30565C84.429 7.04319 82.6776 5.84718 80.8658 4.8505C79.0541 3.78738 77.0611 2.92359 75.0682 2.25914C73.0148 1.52824 70.8407 0.996678 68.6062 0.598007C66.3112 0.199335 64.0163 0 61.661 0C57.3127 0 53.0853 0.664452 49.0994 1.99336C47.1668 2.59136 45.2946 3.3887 43.5432 4.31894C41.7919 5.24917 40.1613 6.24585 38.6514 7.37542C32.4914 12.0266 28.6263 18.3389 27.7808 25.1163C27.66 26.0465 27.5996 26.9767 27.5996 27.907C27.5996 28.3721 27.5996 28.8372 27.66 29.3023C27.7204 30.0997 27.7808 30.897 27.9016 31.6944C28.3847 34.485 29.351 37.1429 30.8004 39.7342C31.2836 40.5316 31.8271 41.3953 32.3706 42.1927C34.2428 44.7841 36.6585 47.1096 39.4366 49.103C40.9464 50.1661 42.577 51.1628 44.3284 52.0266C46.4421 53.0233 48.6162 53.887 50.9111 54.4851C54.3535 55.4153 57.9771 55.8804 61.661 55.8804C62.2045 55.8804 62.6877 55.8804 63.2312 55.8804C63.2916 55.8804 63.4124 55.8804 63.4728 55.8804C64.2579 55.814 64.9826 55.814 65.7677 55.7475C68.7269 55.4817 71.6862 54.8173 74.4642 53.887C74.7058 53.8206 74.9474 53.7542 75.1889 53.7542C75.5513 53.7542 75.8533 53.8206 76.1552 54.0199L81.7113 56.7442L83.8855 57.8073L93.4879 62.5249L92.1593 59.2691L91.4345 57.5415L87.7506 48.505C87.3278 47.5083 87.5694 46.3123 88.2337 45.5814C88.2337 45.3821 88.2337 45.3156 88.2941 45.3156ZM58.6414 43.3887V40.598C58.6414 40.5316 58.6414 40.4651 58.6414 40.3987C58.7622 38.804 59.97 37.5415 61.4194 37.5415C62.8689 37.5415 64.1975 38.9369 64.1975 40.598V43.3887C64.1975 45.0498 62.9293 46.4452 61.4194 46.4452C59.9096 46.4452 58.6414 45.1163 58.6414 43.3887ZM70.5991 11.6944C71.505 12.691 72.2901 13.8206 72.7732 15.1495C73.2564 16.412 73.4376 17.7409 73.4376 19.0698C73.4376 21.4618 72.9544 23.2558 71.9277 24.9169C70.9615 26.4452 69.5724 27.7741 67.4587 29.5681C64.741 31.8272 64.1975 33.1561 64.1975 34.8173C64.1975 35.7475 63.7144 36.5448 62.9897 36.8771C62.7481 37.01 62.4461 37.0764 62.1442 37.0764H60.6947C60.3928 37.0764 60.0908 37.01 59.7888 36.8771C59.1245 36.5448 58.7018 35.814 58.6414 34.9502C58.6414 34.8837 58.6414 34.8837 58.6414 34.8173V34.6179C58.6414 33.4219 58.7622 32.0266 59.5473 30.3654C59.7888 29.8339 60.0908 29.3688 60.4532 28.9037C61.2383 27.7741 62.3857 26.6445 63.8351 25.4485C67.3379 22.5249 67.8814 21.3953 67.8814 19.2691C67.8814 18.804 67.821 18.4053 67.7607 18.0066C67.5795 17.2093 67.2171 16.4784 66.6736 15.8804C66.432 15.6146 66.1301 15.3488 65.7677 15.0831C64.8014 14.4186 63.4728 14.0864 61.9026 14.0864C58.3394 14.0864 56.2257 15.7475 55.3802 19.1362C55.1386 20.1329 54.3535 20.8638 53.3872 20.8638H51.9982C51.5151 20.8638 51.0319 20.6645 50.6696 20.3322C50.5488 20.2658 50.4884 20.1329 50.428 20C50.126 19.6013 49.9449 19.0698 50.0053 18.5382C50.0053 18.4053 50.0052 18.206 50.0656 18.0731C50.428 16.3455 51.2735 13.887 53.2061 11.8937C54.2327 10.8306 55.4406 10.0332 56.7692 9.43522C57.8563 8.9701 59.0037 8.70432 60.272 8.57143C60.8155 8.50498 61.359 8.50498 61.963 8.50498C63.7747 8.50498 65.4657 8.77076 66.9152 9.36877C68.0022 9.76744 68.9685 10.3654 69.814 11.0963C70.1764 11.2292 70.3575 11.4286 70.5991 11.6944Z" fill="#B80000"/>
<path d="M58.6416 43.3887V40.598C58.6416 40.5315 58.6416 40.4651 58.6416 40.3986C58.7624 38.804 59.9702 37.5415 61.4197 37.5415C62.8691 37.5415 64.1977 38.9369 64.1977 40.598V43.3887C64.1977 45.0498 62.9295 46.4452 61.4197 46.4452C59.9098 46.4452 58.6416 45.1163 58.6416 43.3887Z" fill="#FFBF00"/>
<path d="M70.5986 11.6943C71.5045 12.6909 72.2896 13.8205 72.7727 15.1494C73.2559 16.4119 73.437 17.7408 73.437 19.0697C73.437 21.4617 72.9539 23.2557 71.9272 24.9168C70.961 26.4451 69.5719 27.774 67.4582 29.568C64.7405 31.8271 64.197 33.156 64.197 34.8172C64.197 35.7474 63.7138 36.5448 62.9891 36.877C62.7476 37.0099 62.4456 37.0763 62.1436 37.0763H60.6942C60.3923 37.0763 60.0903 37.0099 59.7883 36.877C59.124 36.5448 58.7013 35.8139 58.6409 34.9501C58.6409 34.8836 58.6409 34.8836 58.6409 34.8172V34.6178C58.6409 33.4218 58.7617 32.0265 59.5468 30.3653C59.7883 29.8338 60.0903 29.3687 60.4526 28.9036C61.2377 27.774 62.3852 26.6444 63.8346 25.4484C67.3374 22.5248 67.8809 21.3952 67.8809 19.269C67.8809 18.8039 67.8205 18.4052 67.7601 18.0065C67.579 17.2092 67.2166 16.4783 66.6731 15.8803C66.4315 15.6145 66.1295 15.3487 65.7672 15.083C64.8009 14.4185 63.4723 14.0863 61.9021 14.0863C58.3389 14.0863 56.2252 15.7474 55.3797 19.1361C55.1381 20.1328 54.353 20.8637 53.3867 20.8637H51.9977C51.5145 20.8637 51.0314 20.6644 50.6691 20.3321C50.5483 20.2657 50.4879 20.1328 50.4275 19.9999C50.1255 19.6012 49.9443 19.0697 50.0047 18.5381C50.0047 18.4052 50.0047 18.2059 50.0651 18.073C50.4275 16.3454 51.273 13.8869 53.2055 11.8936C54.2322 10.8305 55.4401 10.0331 56.7687 9.43512C57.8558 8.97 59.0032 8.70422 60.2715 8.57133C60.815 8.50488 61.3585 8.50488 61.9625 8.50488C63.7742 8.50488 65.4652 8.77066 66.9146 9.36867C68.0017 9.76734 68.968 10.3653 69.8135 11.0962C70.1758 11.2291 70.4174 11.4285 70.5986 11.6943Z" fill="#FFBF00"/>
</svg>
