<svg width="128" height="138" viewBox="0 0 128 138" fill="none" xmlns="http://www.w3.org/2000/svg">
<path d="M74.5159 36.5635C73.7209 36.5635 73.1427 37.2151 73.1427 37.9391V49.8132C73.1427 50.9717 71.5526 52.0577 70.4685 51.5509L62.3014 46.9895C61.8677 46.7723 61.3618 46.7723 61.0004 46.9895L52.2551 51.5509C51.5323 51.9853 49.7977 50.9717 49.7977 50.2476V37.9391C49.7977 37.1427 49.1472 36.5635 48.4245 36.5635H31.006C30.211 36.5635 29.6328 37.2151 29.6328 37.9391V126.922C29.6328 127.719 30.2833 128.298 31.006 128.298H113.617C114.412 128.298 114.99 127.646 114.99 126.922V37.9391C114.99 37.1427 114.34 36.5635 113.617 36.5635H74.5159ZM39.4623 72.9822C39.1009 75.0818 35.9208 75.299 35.6317 72.5477C35.2703 68.638 35.9208 64.2938 35.6317 60.3116C35.6317 60.1668 35.6317 60.022 35.6317 59.9496C35.8485 59.1532 36.6435 58.4292 37.4386 58.4292C38.7395 58.3568 39.3177 59.5152 39.4623 60.6012C39.8237 64.511 39.1732 69 39.4623 72.9822ZM36.7158 46.1207C37.5831 45.8311 38.7395 46.1207 39.1732 46.9171C39.5346 47.5687 39.6068 51.9129 39.39 52.7817C38.9564 54.6642 35.9931 54.6642 35.6317 52.5645C35.4149 51.3337 35.2703 46.6275 36.7158 46.1207Z" fill="#FD7000"/>
<path d="M8.7452 114.324L23.634 124.895C24.5735 125.546 25.8745 124.895 25.8745 123.736V36.4184C25.8745 35.984 25.6577 35.5496 25.2963 35.26L10.4075 24.6892C9.46795 24.0375 8.16699 24.6892 8.16699 25.8476V113.166C8.16699 113.6 8.38382 114.034 8.7452 114.324Z" fill="#FD7000"/>
<path d="M107.257 30.1918L95.2588 21.5035C95.042 21.3587 94.7529 21.2139 94.4638 21.2139H65.915C64.7586 21.2139 64.1081 22.5895 64.8308 23.4584L71.6247 32.1467C71.9138 32.5087 72.2752 32.6535 72.7089 32.6535H106.462C107.835 32.7259 108.413 30.9883 107.257 30.1918Z" fill="#FD7000"/>
<path d="M37.944 21.2139H16.6227C15.2495 21.2139 14.6713 22.9515 15.7554 23.748C19.7306 26.7165 23.8503 29.3954 27.7532 32.4363C27.97 32.6535 28.2591 32.7259 28.6205 32.7259H44.7379C45.8943 32.7259 46.5448 31.3503 45.8221 30.4814L39.0282 21.7931C38.7391 21.4311 38.3777 21.2139 37.944 21.2139Z" fill="#FD7000"/>
<path d="M65.3365 30.409L58.5426 21.7207C58.2535 21.3587 57.8921 21.2139 57.4585 21.2139H46.328C45.1716 21.2139 44.5212 22.5895 45.2439 23.4584L52.0378 32.1467C52.3269 32.5087 52.6883 32.6535 53.1219 32.6535H64.2524C65.4088 32.7259 66.0593 31.3503 65.3365 30.409Z" fill="#FFBF00"/>
<path d="M55.5797 45.5414L61.1449 42.7177C61.5063 42.5729 61.8676 42.5005 62.229 42.6453C63.3854 43.0797 65.5537 44.4554 67.216 45.3966C68.1556 45.9759 69.312 45.2518 69.312 44.1658V36.9255L68.9507 36.5635H54.9292C54.1342 36.5635 53.556 37.2151 53.556 37.9391V44.3106C53.4837 45.3242 54.6401 45.9759 55.5797 45.5414Z" fill="#FFBF00"/>
<path d="M86.0073 62.3388C92.5121 61.9768 100.39 66.8278 102.631 72.9821C104.076 77.0366 103.498 84.4217 103.353 88.8383C103.137 94.2685 103.064 100.061 99.6674 104.55C93.7408 112.369 75.961 116.134 66.6374 116.931C60.4218 117.437 56.4466 117.655 52.5437 112.152C50.6646 109.473 47.1231 103.247 46.9062 100.133C45.8221 88.6935 55.7238 88.4039 62.59 83.1185C65.4088 80.9464 67.8661 78.1951 70.0344 75.3714C74.4432 69.7239 77.6233 62.7733 86.0073 62.3388ZM90.9943 69.2171C82.3935 65.235 78.7797 73.8509 74.4432 79.2811C72.564 81.6704 70.3958 84.2045 68.1552 86.1594C66.782 87.3903 65.1919 88.4039 63.7464 89.6348C70.3958 89.7072 77.4065 87.6799 82.5381 83.3357C80.2975 79.6431 83.6945 74.2853 88.1033 75.7334L90.9943 69.2171ZM89.6934 98.1059C90.2716 97.2371 91.0666 96.4406 91.7171 95.4994C95.1863 90.8656 98.2941 82.5393 97.4991 76.747C97.0655 73.6337 94.9695 71.4616 92.2953 69.8688L89.332 76.5298C92.0784 80.3672 88.3924 86.3042 83.6945 84.3493L82.8994 85.001C84.2727 89.0555 86.0796 93.1825 88.4647 96.7302C88.6092 97.0199 89.4765 98.3231 89.6934 98.1059ZM88.4647 99.4092C86.441 96.4406 84.6341 93.3273 83.1886 89.9968C82.6103 88.6211 82.1767 87.2455 81.5985 85.9422C79.2134 87.6799 76.5392 88.8383 73.7205 89.7072C72.2749 95.1374 71.1908 100.712 71.4799 106.36C76.8283 105.636 82.5381 104.043 86.8023 100.712C87.3083 100.278 87.8142 99.6988 88.4647 99.4092ZM71.9858 90.214C68.5166 91.0828 64.9028 91.2276 61.3613 90.938C57.3862 93.1825 51.6764 94.0513 52.8328 99.9884C53.3388 102.522 55.0011 104.912 57.1694 106.287C61.1445 108.17 65.8424 107.156 70.0344 106.649C69.7453 103.174 70.1067 99.6988 70.6849 96.2958C71.0463 94.1961 71.5522 92.2413 71.9858 90.214Z" fill="#B80000"/>
</svg>
