<svg width="36" height="33" viewBox="0 0 36 33" fill="none" xmlns="http://www.w3.org/2000/svg">
<path d="M10.0753 28.4484C8.68431 28.3068 7.41116 27.1741 7.10466 25.829C6.60955 23.6815 8.07131 21.8644 10.1696 21.5812L8.02416 4.89681C7.36401 1.26259 4.25188 2.77291 1.82347 2.34813C0.715361 2.15934 0.64463 0.507426 1.75274 0.318636C2.55435 0.177043 4.72341 0.247839 5.59575 0.295037C8.44854 0.483828 10.2404 3.0089 10.1696 5.74636H33.9115C34.5009 5.79356 34.9488 6.00595 35.0903 6.61952C34.5716 10.7493 33.8171 14.8791 33.157 18.9853C32.8033 20.354 31.8367 21.3924 30.4692 21.8172C23.7499 22.5959 16.9598 23.0207 10.1932 23.6579C8.61358 23.9883 8.70789 26.1121 10.264 26.3245H27.7579C30.87 26.7021 31.7424 30.9735 28.9603 32.5074C26.1783 34.0414 23.184 31.3275 24.1978 28.4012H17.6906C18.6337 31.0207 16.3232 33.6166 13.5883 32.8142C11.7493 32.2714 10.8062 30.1947 11.4899 28.4012C11.042 28.4248 10.5233 28.4956 10.0753 28.4484Z" fill="#FD7000"/>
<path d="M32.8505 7.82312V8.2007C32.1432 11.4573 31.9782 15.0208 31.2473 18.2538C30.9408 19.6461 30.092 19.9765 28.7717 20.0473C23.2783 20.4485 17.7614 21.0385 12.268 21.416L10.5469 7.82312H32.8505Z" fill="#B80000"/>
<path d="M27.2628 28.4013C28.3238 28.3069 29.0311 29.534 28.3709 30.4307C27.5457 31.5635 25.8011 30.7139 26.1311 29.3452C26.2254 28.8732 26.7913 28.4485 27.2628 28.4013Z" fill="white"/>
<path d="M14.2249 28.472C15.6866 28.1652 16.4411 29.9115 15.3094 30.7375C14.272 31.4927 12.881 30.3127 13.4468 29.1564C13.5647 28.8968 13.9655 28.5192 14.2249 28.472Z" fill="white"/>
<path d="M15.1915 9.42777C16.111 9.23897 16.4175 9.94694 16.5118 10.6785C16.8183 12.8732 16.8183 15.1623 17.1484 17.357C17.0541 18.2065 16.0638 18.7257 15.3801 18.0885C15.0972 17.8053 15.05 17.4514 15.0029 17.0974C14.72 14.9263 14.6964 12.6608 14.3899 10.4661C14.3899 10.0413 14.7671 9.52216 15.1915 9.42777Z" fill="white"/>
<path d="M27.8758 9.42782C28.5596 9.30982 29.0782 9.8054 29.1254 10.4898L28.4417 17.5694C28.1352 18.8201 26.3669 18.5842 26.3905 17.239C26.7441 15.0443 26.697 12.6845 27.0271 10.4898C27.0978 9.99419 27.31 9.52221 27.8758 9.42782Z" fill="white"/>
<path d="M22.5003 9.71096C22.6182 9.82895 22.7832 10.1593 22.8068 10.3481V17.5222C22.5474 18.6785 20.9914 18.7021 20.7556 17.5222V10.2773C20.8735 9.45137 21.8873 9.12098 22.5003 9.71096Z" fill="white"/>
</svg>
