<svg width="96" height="96" viewBox="0 0 96 96" fill="none" xmlns="http://www.w3.org/2000/svg">
<path opacity="0.937" fill-rule="evenodd" clip-rule="evenodd" d="M50.8 7.42216C50.9175 7.40705 51.0213 7.43669 51.1111 7.51105C51.6082 9.23283 52.0082 10.981 52.3111 12.7555C48.7029 13.6797 45.1178 14.6722 41.5556 15.7333C41.4272 15.8027 41.3087 15.7879 41.2 15.6888C41.2669 15.4886 41.3854 15.3255 41.5556 15.1999C44.6845 12.6476 47.766 10.055 50.8 7.42216Z" fill="#ED1B23"/>
<path opacity="0.988" fill-rule="evenodd" clip-rule="evenodd" d="M35.5111 47.5111C35.5264 47.4229 35.4967 47.3637 35.4222 47.3333C35.2596 46.7418 35.0522 46.164 34.8 45.6C31.0467 36.9337 27.2837 28.267 23.5111 19.6C24.3415 19.3976 25.1711 19.205 26 19.0222C37.3484 17.0963 48.6965 15.1703 60.0444 13.2444C60.2772 13.231 60.4847 13.1569 60.6667 13.0222C60.6963 13.2444 60.726 13.4667 60.7556 13.6889C59.7494 29.1213 58.6975 44.5436 57.6 59.9556C52.3773 60.6898 47.1625 61.4305 41.9556 62.1778C39.9918 57.8293 38.0956 53.4442 36.2667 49.0222C35.9878 48.5228 35.736 48.019 35.5111 47.5111Z" fill="#F58220"/>
<path fill-rule="evenodd" clip-rule="evenodd" d="M44.4 21.3777C43.2714 21.3552 42.1455 21.3848 41.0222 21.4666C41.09 21.3984 41.1789 21.3539 41.2889 21.3333C42.3414 21.2599 43.3784 21.2747 44.4 21.3777Z" fill="#F79D50"/>
<path fill-rule="evenodd" clip-rule="evenodd" d="M44.4 21.3778C44.8839 21.5008 45.3876 21.56 45.9111 21.5556C45.921 21.6104 45.9506 21.6549 46 21.6889C46.8053 21.7636 47.6053 21.8672 48.4 22C48.7609 22.0494 49.0424 22.2271 49.2444 22.5334C49.286 22.8636 49.1526 23.1006 48.8444 23.2445C48.6252 23.2671 48.4474 23.356 48.3111 23.5111C46.8885 23.7398 45.4663 23.9768 44.0444 24.2223C43.6709 24.2784 43.3154 24.3673 42.9778 24.4889C42.681 24.5236 42.3846 24.568 42.0889 24.6223C42.0395 24.6563 42.0099 24.7007 42 24.7556C41.4226 24.8493 40.8596 24.9975 40.3111 25.2C39.6515 25.3701 39.0292 25.6071 38.4444 25.9111C37.2654 26.3079 36.1396 26.8264 35.0667 27.4667C34.1964 27.7671 33.752 27.456 33.7333 26.5334C33.734 26.1761 33.8376 25.8503 34.0444 25.5556C35.2124 24.1036 36.6198 22.9776 38.2667 22.1778C38.6591 22.1457 39.0147 22.0272 39.3333 21.8223C39.8711 21.6375 40.4341 21.5191 41.0222 21.4667C42.1455 21.3848 43.2714 21.3552 44.4 21.3778Z" fill="#FFFDFC"/>
<path fill-rule="evenodd" clip-rule="evenodd" d="M45.9111 21.5555C46.5328 21.6263 47.155 21.7003 47.7778 21.7778C48.0093 21.8124 48.2167 21.8866 48.4 22C47.6054 21.8672 46.8054 21.7635 46 21.6889C45.9506 21.6548 45.921 21.6104 45.9111 21.5555Z" fill="#FEE1C9"/>
<path fill-rule="evenodd" clip-rule="evenodd" d="M39.3333 21.8223C39.0147 22.0272 38.6591 22.1457 38.2667 22.1778C38.5853 21.9728 38.9409 21.8544 39.3333 21.8223Z" fill="#FDD1AE"/>
<path fill-rule="evenodd" clip-rule="evenodd" d="M48.8444 23.2444C48.7082 23.3995 48.5304 23.4884 48.3111 23.5111C48.4474 23.3559 48.6251 23.2671 48.8444 23.2444Z" fill="#FAB377"/>
<path fill-rule="evenodd" clip-rule="evenodd" d="M44.0444 24.2222C43.7395 24.4545 43.3839 24.5434 42.9778 24.4888C43.3154 24.3672 43.6709 24.2783 44.0444 24.2222Z" fill="#F89F56"/>
<path fill-rule="evenodd" clip-rule="evenodd" d="M42.9778 24.4889C42.6782 24.6346 42.3523 24.7235 42 24.7556C42.0099 24.7007 42.0395 24.6563 42.0889 24.6222C42.3846 24.568 42.681 24.5236 42.9778 24.4889Z" fill="#FAA967"/>
<path fill-rule="evenodd" clip-rule="evenodd" d="M49.3778 24.5778C49.3778 24.6074 49.3778 24.6371 49.3778 24.6667C47.8948 24.6484 46.4133 24.678 44.9333 24.7556C45.0012 24.6873 45.0901 24.6429 45.2 24.6223C46.5923 24.5778 47.9849 24.563 49.3778 24.5778Z" fill="#FBC699"/>
<path fill-rule="evenodd" clip-rule="evenodd" d="M49.3778 24.6666C49.3778 24.637 49.3778 24.6073 49.3778 24.5777C50.1971 24.5543 50.9971 24.6136 51.7778 24.7555C50.977 24.7443 50.177 24.7147 49.3778 24.6666Z" fill="#F9AB69"/>
<path fill-rule="evenodd" clip-rule="evenodd" d="M49.3778 24.6666C50.177 24.7147 50.977 24.7443 51.7778 24.7555C52.4709 24.8224 53.1524 24.9854 53.8222 25.2444C54.3609 25.483 54.5831 25.883 54.4889 26.4444C54.187 26.7071 53.8463 26.8552 53.4666 26.8888C51.9553 26.874 50.4442 26.8888 48.9333 26.9333C48.5906 26.949 48.2646 26.9935 47.9555 27.0666C47.517 27.0425 47.1022 27.1018 46.7111 27.2444C45.496 27.3537 44.3108 27.5907 43.1555 27.9555C42.7815 27.9712 42.4556 28.0897 42.1778 28.3111C40.3468 28.8186 38.7913 29.7667 37.5111 31.1555C37.0201 31.8666 37.1237 32.474 37.8222 32.9777C38.2441 33.1925 38.6885 33.3407 39.1555 33.4222C41.3538 33.6168 43.5465 33.5724 45.7333 33.2888C46.2673 33.2549 46.7709 33.1363 47.2444 32.9333C47.3037 32.9333 47.3629 32.9333 47.4222 32.9333C47.6579 32.9413 47.8653 32.8821 48.0444 32.7555C48.852 32.5794 49.5779 32.2239 50.2222 31.6888C50.3378 31.5231 50.3675 31.3453 50.3111 31.1555C50.1189 30.9781 49.8967 30.8595 49.6444 30.8C49.6073 30.7358 49.5481 30.6913 49.4666 30.6666C48.3704 30.6073 47.274 30.6073 46.1778 30.6666C46.0105 30.6842 45.8624 30.7287 45.7333 30.8C45.335 30.902 44.9202 30.9168 44.4889 30.8444C44.2379 30.7562 44.0602 30.5933 43.9555 30.3555C43.9509 30.1419 43.9805 29.9345 44.0444 29.7333C44.2777 29.3673 44.6035 29.1155 45.0222 28.9777C45.8012 28.69 46.6012 28.4974 47.4222 28.4C48.4565 28.3188 49.4936 28.2892 50.5333 28.3111C50.8858 28.3699 51.2414 28.3995 51.6 28.4C51.7791 28.5265 51.9865 28.5857 52.2222 28.5777C53.3349 28.8752 54.2978 29.4381 55.1111 30.2666C55.9649 31.3284 55.9946 32.4247 55.2 33.5555C54.5608 34.3288 53.8052 34.9511 52.9333 35.4222C53.2814 35.6363 53.5925 35.903 53.8666 36.2222C54.1522 37.1735 53.9447 38.0031 53.2444 38.7111C52.5071 39.4786 51.6922 40.1453 50.8 40.7111C51.5055 41.1592 51.787 41.7963 51.6444 42.6222C51.2618 43.6683 50.5952 44.4832 49.6444 45.0666C49.1437 45.3911 48.6104 45.6429 48.0444 45.8222C47.0732 45.97 46.0954 46.0293 45.1111 46C42.4126 45.6209 40.0867 44.4951 38.1333 42.6222C37.9817 42.3634 37.8187 42.1115 37.6444 41.8666C37.5384 41.66 37.5384 41.4675 37.6444 41.2888C37.8877 41.28 38.1248 41.3097 38.3555 41.3777C39.2266 41.8431 40.1155 42.2579 41.0222 42.6222C41.3279 42.7736 41.6538 42.8922 42 42.9777C42.7052 43.1484 43.4163 43.2966 44.1333 43.4222C45.0727 43.5477 46.0208 43.5181 46.9778 43.3333C47.0856 43.3113 47.1449 43.252 47.1555 43.1555C48.0903 42.7988 48.8606 42.221 49.4666 41.4222C48.9856 41.4832 48.5115 41.6017 48.0444 41.7777C45.6952 42.2587 43.3841 42.1551 41.1111 41.4666C40.876 41.3057 40.6093 41.2168 40.3111 41.2C39.4153 40.9144 38.5561 40.5589 37.7333 40.1333C37.6913 40.0083 37.6024 39.949 37.4666 39.9555C36.9079 39.6784 36.4783 39.2635 36.1778 38.7111C36.1185 38.5333 36.1185 38.3555 36.1778 38.1777C36.2374 38.1109 36.3114 38.0812 36.4 38.0888C36.7586 38.0893 37.1141 38.1189 37.4666 38.1777C38.108 38.4212 38.7598 38.6286 39.4222 38.8C39.6013 38.9265 39.8087 38.9857 40.0444 38.9777C42.3355 39.492 44.6466 39.5512 46.9778 39.1555C47.1469 39.1292 47.2951 39.0699 47.4222 38.9777C47.6579 38.9857 47.8653 38.9265 48.0444 38.8C49.3932 38.3112 50.4895 37.4816 51.3333 36.3111C51.5222 36.2339 51.537 36.145 51.3778 36.0444C51.2242 36.0799 51.0908 36.1392 50.9778 36.2222C50.6909 36.2378 50.4242 36.2971 50.1778 36.4C49.7908 36.4496 49.4057 36.5088 49.0222 36.5777C46.5973 36.7755 44.1676 36.8644 41.7333 36.8444C41.3808 36.7856 41.0252 36.756 40.6666 36.7555C40.2427 36.632 39.7983 36.5728 39.3333 36.5777C39.1542 36.4512 38.9468 36.392 38.7111 36.4C36.8941 36.1723 35.2644 35.5056 33.8222 34.4C32.941 33.6306 32.5706 32.6677 32.7111 31.5111C32.7614 31.3135 32.8355 31.1357 32.9333 30.9777C33.0583 30.9357 33.1176 30.8468 33.1111 30.7111C34.6546 28.3397 36.7879 26.7397 39.5111 25.9111C39.7686 25.8552 40.0057 25.7663 40.2222 25.6444C40.4579 25.6524 40.6653 25.5932 40.8444 25.4666C42.1722 25.0904 43.5351 24.8533 44.9333 24.7555C46.4133 24.6779 47.8947 24.6483 49.3778 24.6666Z" fill="#FFFDFC"/>
<path fill-rule="evenodd" clip-rule="evenodd" d="M40.3111 25.2C39.7263 25.504 39.1041 25.741 38.4445 25.9111C39.0293 25.607 39.6515 25.37 40.3111 25.2Z" fill="#F8A259"/>
<path fill-rule="evenodd" clip-rule="evenodd" d="M40.8445 25.4667C40.6653 25.5932 40.458 25.6524 40.2222 25.6444C40.4013 25.5179 40.6087 25.4587 40.8445 25.4667Z" fill="#FCD1AD"/>
<path fill-rule="evenodd" clip-rule="evenodd" d="M40.2222 25.6445C40.0057 25.7663 39.7686 25.8552 39.5111 25.9111C39.6993 25.7196 39.9364 25.6307 40.2222 25.6445Z" fill="#FBC293"/>
<path fill-rule="evenodd" clip-rule="evenodd" d="M53.4667 26.8889C51.6445 26.9703 49.8075 27.0296 47.9556 27.0666C48.2646 26.9935 48.5906 26.949 48.9333 26.9333C50.4442 26.8889 51.9553 26.874 53.4667 26.8889Z" fill="#FABC88"/>
<path fill-rule="evenodd" clip-rule="evenodd" d="M47.9556 27.0666C47.5628 27.1975 47.1479 27.2567 46.7111 27.2444C47.1022 27.1018 47.517 27.0425 47.9556 27.0666Z" fill="#FAB073"/>
<path fill-rule="evenodd" clip-rule="evenodd" d="M43.1556 27.9556C42.8499 28.107 42.524 28.2256 42.1778 28.3111C42.4557 28.0898 42.7815 27.9713 43.1556 27.9556Z" fill="#F9B275"/>
<path fill-rule="evenodd" clip-rule="evenodd" d="M50.5334 28.2222C50.5334 28.2518 50.5334 28.2815 50.5334 28.3111C49.4936 28.2893 48.4566 28.3189 47.4222 28.4C47.4594 28.3358 47.5186 28.2914 47.6 28.2667C48.5774 28.2222 49.5551 28.2074 50.5334 28.2222Z" fill="#FCCCA4"/>
<path fill-rule="evenodd" clip-rule="evenodd" d="M50.5333 28.3111C50.5333 28.2815 50.5333 28.2518 50.5333 28.2222C50.9147 28.1954 51.2702 28.2546 51.6 28.4C51.2414 28.3996 50.8859 28.37 50.5333 28.3111Z" fill="#F9A661"/>
<path fill-rule="evenodd" clip-rule="evenodd" d="M51.6 28.4C51.8357 28.392 52.0431 28.4512 52.2222 28.5778C51.9865 28.5858 51.7791 28.5266 51.6 28.4Z" fill="#F9AA68"/>
<path opacity="0.899" fill-rule="evenodd" clip-rule="evenodd" d="M35.4222 47.3333C35.407 47.4215 35.4366 47.4807 35.5111 47.5111C35.5096 47.6469 35.4503 47.6914 35.3334 47.6445C31.3128 42.0847 27.2981 36.5292 23.2889 30.9778C23.2296 30.8889 23.2296 30.8 23.2889 30.7111C23.7755 30.4021 24.2051 30.0317 24.5778 29.6C24.8729 29.3339 25.1989 29.1117 25.5556 28.9333C25.6077 28.9519 25.6521 28.9816 25.6889 29.0222C28.9582 35.1165 32.2026 41.2202 35.4222 47.3333Z" fill="#ED1B23"/>
<path fill-rule="evenodd" clip-rule="evenodd" d="M44.0445 29.7333C43.9806 29.9345 43.951 30.1419 43.9556 30.3555C43.8981 30.2867 43.8685 30.1978 43.8667 30.0888C43.8525 29.9239 43.9118 29.8055 44.0445 29.7333Z" fill="#FABD8A"/>
<path fill-rule="evenodd" clip-rule="evenodd" d="M49.6444 30.8C48.3417 30.6888 47.038 30.6888 45.7333 30.8C45.8624 30.7287 46.0105 30.6843 46.1778 30.6667C47.274 30.6074 48.3704 30.6074 49.4667 30.6667C49.5481 30.6914 49.6073 30.7358 49.6444 30.8Z" fill="#FAC08F"/>
<path fill-rule="evenodd" clip-rule="evenodd" d="M33.1111 30.7111C33.1176 30.8468 33.0583 30.9357 32.9333 30.9777C32.9269 30.842 32.9861 30.7531 33.1111 30.7111Z" fill="#FBBE8C"/>
<path fill-rule="evenodd" clip-rule="evenodd" d="M48.0445 32.7556C47.8654 32.8822 47.658 32.9414 47.4222 32.9334C47.6014 32.8068 47.8087 32.7476 48.0445 32.7556Z" fill="#FCD0AA"/>
<path fill-rule="evenodd" clip-rule="evenodd" d="M47.2444 32.9333C46.7709 33.1364 46.2673 33.2549 45.7333 33.2889C46.2153 33.1239 46.719 33.0054 47.2444 32.9333Z" fill="#FABE8B"/>
<path fill-rule="evenodd" clip-rule="evenodd" d="M51.3333 36.3111C51.2384 36.2281 51.1199 36.1984 50.9778 36.2222C51.0908 36.1392 51.2242 36.0799 51.3778 36.0444C51.537 36.1451 51.5222 36.2339 51.3333 36.3111Z" fill="#F9AB6A"/>
<path fill-rule="evenodd" clip-rule="evenodd" d="M50.9778 36.2222C50.7404 36.366 50.4737 36.4253 50.1778 36.3999C50.4243 36.2971 50.691 36.2378 50.9778 36.2222Z" fill="#FAB479"/>
<path fill-rule="evenodd" clip-rule="evenodd" d="M38.7111 36.4C38.9469 36.392 39.1542 36.4512 39.3333 36.5778C39.0976 36.5858 38.8902 36.5266 38.7111 36.4Z" fill="#FBC393"/>
<path fill-rule="evenodd" clip-rule="evenodd" d="M39.3333 36.5778C39.7983 36.5728 40.2427 36.6321 40.6666 36.7556C40.2017 36.7606 39.7572 36.7013 39.3333 36.5778Z" fill="#FBBE8B"/>
<path fill-rule="evenodd" clip-rule="evenodd" d="M50.1778 36.4C50.1406 36.4642 50.0814 36.5086 50 36.5334C49.6738 36.5821 49.3478 36.6265 49.0222 36.6667C49.0222 36.6371 49.0222 36.6074 49.0222 36.5778C49.4057 36.5089 49.7908 36.4497 50.1778 36.4Z" fill="#F9A967"/>
<path fill-rule="evenodd" clip-rule="evenodd" d="M49.0222 36.5778C49.0222 36.6074 49.0222 36.637 49.0222 36.6666C46.5831 36.912 44.1535 36.9712 41.7333 36.8444C44.1676 36.8644 46.5973 36.7755 49.0222 36.5778Z" fill="#FDDEC4"/>
<path fill-rule="evenodd" clip-rule="evenodd" d="M36.4 38.0889C36.515 38.0304 36.6483 38.0007 36.8 38C37.0508 37.9918 37.273 38.051 37.4667 38.1778C37.1142 38.1189 36.7586 38.0893 36.4 38.0889Z" fill="#FAB377"/>
<path fill-rule="evenodd" clip-rule="evenodd" d="M39.4222 38.8C39.658 38.792 39.8654 38.8512 40.0445 38.9778C39.8087 38.9858 39.6014 38.9266 39.4222 38.8Z" fill="#FBC394"/>
<path fill-rule="evenodd" clip-rule="evenodd" d="M48.0445 38.8C47.8654 38.9266 47.658 38.9858 47.4222 38.9778C47.6014 38.8512 47.8087 38.792 48.0445 38.8Z" fill="#FBC292"/>
<path fill-rule="evenodd" clip-rule="evenodd" d="M47.4222 38.9778C47.2951 39.07 47.1469 39.1293 46.9778 39.1556C47.0787 39.0033 47.2268 38.944 47.4222 38.9778Z" fill="#FABE8B"/>
<path fill-rule="evenodd" clip-rule="evenodd" d="M37.4667 39.9556C37.6024 39.9491 37.6913 40.0084 37.7333 40.1333C37.5976 40.1398 37.5087 40.0805 37.4667 39.9556Z" fill="#FBC08E"/>
<path fill-rule="evenodd" clip-rule="evenodd" d="M37.6445 41.2889C37.7288 41.231 37.8325 41.2013 37.9556 41.2C38.1341 41.1829 38.2674 41.2422 38.3556 41.3778C38.1248 41.3098 37.8878 41.2801 37.6445 41.2889Z" fill="#FBC99F"/>
<path fill-rule="evenodd" clip-rule="evenodd" d="M40.3111 41.2C40.6093 41.2168 40.876 41.3057 41.1111 41.4666C40.8075 41.4641 40.5408 41.3752 40.3111 41.2Z" fill="#FCC89D"/>
<path fill-rule="evenodd" clip-rule="evenodd" d="M41.0222 42.6222C41.2908 42.6492 41.5575 42.6937 41.8222 42.7555C41.9005 42.8185 41.9597 42.8926 42 42.9777C41.6538 42.8922 41.3279 42.7737 41.0222 42.6222Z" fill="#F89E54"/>
<path opacity="0.872" fill-rule="evenodd" clip-rule="evenodd" d="M59.6889 42.7111C59.8166 43.0318 59.95 43.3577 60.0889 43.6888C60.9623 47.2126 61.8068 50.7385 62.6222 54.2666C61.7073 54.3847 60.7888 54.4736 59.8667 54.5333C59.7397 50.5867 59.6805 46.646 59.6889 42.7111Z" fill="#ED1B23"/>
<path fill-rule="evenodd" clip-rule="evenodd" d="M47.1555 43.1555C47.1449 43.2521 47.0856 43.3113 46.9777 43.3333C46.0208 43.5181 45.0727 43.5477 44.1333 43.4222C45.1567 43.4782 46.1641 43.3893 47.1555 43.1555Z" fill="#FDDABD"/>
<path fill-rule="evenodd" clip-rule="evenodd" d="M49.8222 45.9111C49.5851 45.9407 49.3482 45.9704 49.1111 46C49.3327 45.8147 49.5698 45.7851 49.8222 45.9111Z" fill="#FCD1AC"/>
<path fill-rule="evenodd" clip-rule="evenodd" d="M49.1111 46C49.3482 45.9704 49.5852 45.9408 49.8222 45.9112C50.266 46.0874 50.4289 46.4134 50.3111 46.8889C49.707 48.0851 48.744 48.8111 47.4222 49.0667C46.7407 49.126 46.0593 49.126 45.3778 49.0667C45.2105 49.0491 45.0624 49.0047 44.9334 48.9334C44.4471 48.7218 43.9434 48.544 43.4222 48.4C42.4258 48.0139 41.5814 47.4213 40.8889 46.6223C40.7193 46.3817 40.6453 46.1151 40.6667 45.8223C40.9081 45.8381 41.1452 45.8825 41.3778 45.9556C41.5952 46.1984 41.8619 46.3761 42.1778 46.4889C43.3266 46.9759 44.5118 47.287 45.7334 47.4223C46.474 47.3929 47.1851 47.23 47.8667 46.9334C48.2471 46.5666 48.6619 46.2555 49.1111 46Z" fill="#FFFBF9"/>
<path fill-rule="evenodd" clip-rule="evenodd" d="M48.0444 45.8223C47.8331 45.9456 47.5962 46.0197 47.3333 46.0445C46.5769 46.1176 45.8361 46.1029 45.1111 46C46.0954 46.0294 47.0732 45.9701 48.0444 45.8223Z" fill="#FAB67C"/>
<path fill-rule="evenodd" clip-rule="evenodd" d="M43.4222 48.4C43.9434 48.544 44.4471 48.7218 44.9334 48.9334C44.3853 48.8594 43.8815 48.6816 43.4222 48.4Z" fill="#FDCFAA"/>
<path fill-rule="evenodd" clip-rule="evenodd" d="M44.7555 49.7333C45.0364 49.9556 45.3624 50.074 45.7333 50.0889C45.7926 50.0889 45.8518 50.0889 45.9111 50.0889C46.8477 50.152 47.7959 50.2113 48.7555 50.2667C49.3152 50.5197 49.4189 50.9049 49.0666 51.4222C48.8463 51.5835 48.6241 51.7316 48.4 51.8667C48.0816 51.9332 47.7852 52.0517 47.5111 52.2222C47.5844 52.301 47.6733 52.3306 47.7778 52.3111C48.2588 52.4506 48.6884 52.6876 49.0666 53.0222C49.1757 53.3859 49.1017 53.697 48.8444 53.9556C48.5224 54.0583 48.1965 54.1472 47.8666 54.2222C48.1009 54.3132 48.3379 54.3873 48.5778 54.4444C49.0898 54.5828 49.6232 54.6421 50.1778 54.6222C50.389 54.7122 50.4778 54.8751 50.4444 55.1111C50.4537 55.3018 50.3944 55.4648 50.2666 55.6C49.7387 55.6851 49.2054 55.7147 48.6666 55.6889C48.5988 55.6206 48.5099 55.5762 48.4 55.5556C47.8378 55.5111 47.2748 55.4964 46.7111 55.5111C46.4659 55.399 46.1993 55.325 45.9111 55.2889C45.3015 55.0623 45.0793 54.6326 45.2444 54C45.3717 53.8276 45.5346 53.7092 45.7333 53.6444C46.037 53.5932 46.3037 53.4748 46.5333 53.2889C46.4276 53.2063 46.3091 53.1767 46.1778 53.2C45.597 53.0913 45.1081 52.8246 44.7111 52.4C44.6113 52.0928 44.6853 51.8409 44.9333 51.6444C45.2824 51.5367 45.6379 51.4478 46 51.3778C45.7219 51.303 45.4553 51.2289 45.2 51.1556C45.0576 51.0156 44.8798 50.9564 44.6666 50.9778C44.637 50.9778 44.6074 50.9778 44.5778 50.9778C44.5357 50.8528 44.4468 50.7935 44.3111 50.8C44.081 50.7183 43.9032 50.5701 43.7778 50.3556C43.769 50.1123 43.7986 49.8752 43.8666 49.6444C43.923 49.5158 44.0267 49.4566 44.1778 49.4667C44.3806 49.5369 44.5731 49.6258 44.7555 49.7333Z" fill="#FFFCFA"/>
<path fill-rule="evenodd" clip-rule="evenodd" d="M44.7556 49.7333C45.114 49.7799 45.44 49.8984 45.7333 50.0888C45.3624 50.074 45.0364 49.9555 44.7556 49.7333Z" fill="#FAAD6E"/>
<path fill-rule="evenodd" clip-rule="evenodd" d="M43.8666 49.6444C43.7986 49.8752 43.769 50.1122 43.7778 50.3555C43.7198 50.2712 43.6901 50.1675 43.6889 50.0444C43.6717 49.8659 43.731 49.7326 43.8666 49.6444Z" fill="#FBC89D"/>
<path fill-rule="evenodd" clip-rule="evenodd" d="M45.9111 50.0889C46.8302 50.0741 47.7486 50.0889 48.6667 50.1333C48.7161 50.1674 48.7457 50.2118 48.7556 50.2667C47.7959 50.2113 46.8478 50.152 45.9111 50.0889Z" fill="#F79D50"/>
<path fill-rule="evenodd" clip-rule="evenodd" d="M44.3111 50.8C44.4468 50.7936 44.5357 50.8528 44.5778 50.9778C44.442 50.9843 44.3531 50.925 44.3111 50.8Z" fill="#FBBC88"/>
<path fill-rule="evenodd" clip-rule="evenodd" d="M44.6667 50.9778C44.8798 50.9564 45.0576 51.0156 45.2 51.1556C44.9869 51.177 44.8091 51.1177 44.6667 50.9778Z" fill="#FCCCA4"/>
<path fill-rule="evenodd" clip-rule="evenodd" d="M48.4 51.8667C48.1759 51.9992 47.9685 52.1474 47.7778 52.3111C47.6733 52.3306 47.5844 52.301 47.5111 52.2223C47.7852 52.0518 48.0816 51.9333 48.4 51.8667Z" fill="#FAB47A"/>
<path fill-rule="evenodd" clip-rule="evenodd" d="M46.1778 53.2C46.3092 53.1767 46.4276 53.2063 46.5333 53.2888C46.3037 53.4747 46.0371 53.5932 45.7333 53.6444C45.9009 53.4834 46.1084 53.3797 46.3556 53.3333C46.2741 53.3086 46.2149 53.2641 46.1778 53.2Z" fill="#FBC08E"/>
<path fill-rule="evenodd" clip-rule="evenodd" d="M48.5778 54.4445C49.1288 54.458 49.6621 54.5172 50.1778 54.6222C49.6232 54.6421 49.0898 54.5829 48.5778 54.4445Z" fill="#FCD3B1"/>
<path fill-rule="evenodd" clip-rule="evenodd" d="M46.7111 55.5111C47.2749 55.4964 47.8378 55.5111 48.4 55.5556C48.51 55.5762 48.5989 55.6207 48.6667 55.6889C48.0011 55.6425 47.3492 55.5832 46.7111 55.5111Z" fill="#F8A35B"/>
<path opacity="0.808" fill-rule="evenodd" clip-rule="evenodd" d="M45.2889 70.6222C46.0949 70.7575 46.332 71.2019 46 71.9555C46.4096 71.9659 46.7207 72.1437 46.9333 72.4889C46.9558 73.3394 46.5558 73.6357 45.7333 73.3777C45.5541 73.1849 45.4356 72.9626 45.3778 72.7111C45.3763 72.5062 45.4652 72.358 45.6444 72.2666C45.4666 72.2073 45.2889 72.2073 45.1111 72.2666C45.4983 73.23 45.1723 73.6152 44.1333 73.4222C43.8791 73.095 43.805 72.7246 43.9111 72.3111C43.9914 72.2043 44.095 72.1302 44.2222 72.0889C44.4355 72.0723 44.643 72.0279 44.8444 71.9555C44.5518 71.352 44.6999 70.9075 45.2889 70.6222Z" fill="#F5821E"/>
<path opacity="0.913" fill-rule="evenodd" clip-rule="evenodd" d="M13.6444 71.5111C14.1185 71.5111 14.5926 71.5111 15.0666 71.5111C15.0518 73.2892 15.0666 75.0669 15.1111 76.8444C15.1443 76.9259 15.1888 77 15.2444 77.0667C16.9549 77.2125 18.6735 77.2422 20.4 77.1556C20.5587 77.0858 20.6921 76.9821 20.8 76.8444C20.9312 75.9141 21.3312 75.129 22 74.4889C23.6568 73.6586 24.7976 74.1178 25.4222 75.8667C25.6103 76.8492 25.3289 77.664 24.5778 78.3111C23.6085 78.7484 22.6603 78.7039 21.7333 78.1778C21.4376 78.3753 21.1116 78.4789 20.7555 78.4889C18.8593 78.5482 16.9629 78.5482 15.0666 78.4889C14.3676 78.518 13.9084 78.2069 13.6889 77.5556C13.6444 75.541 13.6296 73.5261 13.6444 71.5111ZM23.1555 75.4222C23.4933 75.4484 23.7155 75.6261 23.8222 75.9556C24.0853 76.9587 23.7149 77.3587 22.7111 77.1556C22.5284 77.0945 22.3803 76.9908 22.2666 76.8444C22.3403 76.2213 22.6367 75.7473 23.1555 75.4222Z" fill="#F4821F"/>
<path opacity="0.917" fill-rule="evenodd" clip-rule="evenodd" d="M34.3555 71.5111C34.8296 71.5111 35.3037 71.5111 35.7778 71.5111C35.7629 73.2003 35.7778 74.8892 35.8222 76.5778C35.8445 76.7496 35.889 76.9125 35.9555 77.0667C36.9124 77.1674 37.8754 77.2118 38.8444 77.2C39.8419 77.2108 40.8345 77.1663 41.8222 77.0667C41.8667 77.0222 41.9111 76.9778 41.9555 76.9333C42 76.2228 42.0147 75.5117 42 74.8C42.474 74.8 42.9482 74.8 43.4222 74.8C43.3937 75.5165 43.4381 76.2276 43.5555 76.9333C43.9445 77.2715 44.3001 77.2418 44.6222 76.8444C44.6667 76.1636 44.6814 75.4821 44.6667 74.8C45.1407 74.8 45.6148 74.8 46.0889 74.8C46.0528 75.5482 46.0972 76.289 46.2222 77.0222C46.5512 77.2773 46.8475 77.2477 47.1111 76.9333C47.1555 76.045 47.1703 75.1561 47.1555 74.2667C47.6593 74.2667 48.1629 74.2667 48.6667 74.2667C48.6519 75.1561 48.6667 76.045 48.7111 76.9333C48.7555 76.9778 48.8 77.0222 48.8444 77.0667C50.3506 77.1948 51.8617 77.2393 53.3778 77.2C53.3778 75.3037 53.3778 73.4074 53.3778 71.5111C53.8518 71.5111 54.3259 71.5111 54.8 71.5111C54.8 73.8518 54.8 76.1926 54.8 78.5333C52.9627 78.5482 51.1257 78.5333 49.2889 78.4889C48.9206 78.4745 48.5798 78.3708 48.2667 78.1778C47.4165 78.6344 46.5869 78.6047 45.7778 78.0889C45.4163 78.3741 45.0015 78.5223 44.5333 78.5333C44.0004 78.5173 43.5115 78.3692 43.0667 78.0889C42.6111 78.3841 42.1074 78.5174 41.5555 78.4889C39.6593 78.5482 37.7629 78.5482 35.8667 78.4889C35.1082 78.5298 34.6193 78.1891 34.4 77.4667C34.3555 75.4817 34.3407 73.4965 34.3555 71.5111Z" fill="#F4821F"/>
<path opacity="0.91" fill-rule="evenodd" clip-rule="evenodd" d="M55.8667 71.5111C56.3407 71.5111 56.8149 71.5111 57.2889 71.5111C57.2889 73.8518 57.2889 76.1926 57.2889 78.5333C56.8149 78.5333 56.3407 78.5333 55.8667 78.5333C55.8667 76.1926 55.8667 73.8518 55.8667 71.5111Z" fill="#F4811F"/>
<path opacity="0.842" fill-rule="evenodd" clip-rule="evenodd" d="M63.6 72.5778C64.2293 72.4616 64.5849 72.7134 64.6667 73.3334C64.6414 73.7884 64.4044 74.0106 63.9556 74C63.3114 74.0386 63.0596 73.7422 63.2 73.1111C63.2532 72.8663 63.3866 72.6886 63.6 72.5778Z" fill="#F5821E"/>
<path opacity="0.792" fill-rule="evenodd" clip-rule="evenodd" d="M65.2 72.5778C66.2138 72.5169 66.51 72.9465 66.0889 73.8667C65.14 74.2507 64.74 73.9396 64.8889 72.9334C65.0112 72.8263 65.1148 72.7078 65.2 72.5778Z" fill="#F5821E"/>
<path opacity="0.898" fill-rule="evenodd" clip-rule="evenodd" d="M30.8 74.0888C32.1638 73.8288 33.0083 74.3621 33.3333 75.6888C33.3926 76.6962 33.3926 77.7037 33.3333 78.7111C33.1523 79.6922 32.5745 80.2996 31.6 80.5333C30.9785 80.5777 30.3563 80.5925 29.7333 80.5777C29.7333 80.1333 29.7333 79.6888 29.7333 79.2444C30.3642 79.314 30.9568 79.2103 31.5111 78.9333C31.6984 78.8209 31.7873 78.658 31.7778 78.4444C30.6133 78.6944 29.7986 78.2797 29.3333 77.2C29.0011 75.7439 29.4899 74.7069 30.8 74.0888ZM31.1555 75.4222C31.504 75.3816 31.7262 75.5296 31.8222 75.8666C31.9311 76.2742 31.9755 76.689 31.9555 77.1111C31.011 77.3664 30.611 77.0109 30.7555 76.0444C30.8389 75.7993 30.9723 75.592 31.1555 75.4222Z" fill="#F5821E"/>
<path opacity="0.907" fill-rule="evenodd" clip-rule="evenodd" d="M26.8889 74.2667C27.363 74.2667 27.8371 74.2667 28.3111 74.2667C28.326 75.8078 28.3111 77.3485 28.2667 78.8889C28.199 79.6361 27.8286 80.1546 27.1556 80.4445C26.6603 80.5646 26.1566 80.609 25.6445 80.5778C25.6445 80.1334 25.6445 79.6889 25.6445 79.2445C25.9704 79.2744 26.2667 79.2003 26.5334 79.0223C26.6401 78.942 26.7142 78.8384 26.7556 78.7112C26.8792 77.2331 26.9237 75.7516 26.8889 74.2667Z" fill="#F4821E"/>
<path opacity="0.93" fill-rule="evenodd" clip-rule="evenodd" d="M67.5111 74.2667C67.9851 74.2667 68.4593 74.2667 68.9333 74.2667C68.8932 75.1945 68.9377 76.113 69.0666 77.0222C69.191 77.0869 69.3243 77.1313 69.4666 77.1556C70.8296 77.2149 72.1926 77.2149 73.5555 77.1556C73.6554 77.1334 73.7443 77.089 73.8222 77.0222C73.909 76.1084 73.9386 75.1899 73.9111 74.2667C74.3851 74.2667 74.8593 74.2667 75.3333 74.2667C75.3186 75.0376 75.3333 75.808 75.3778 76.5778C75.4196 76.9637 75.6418 77.1562 76.0444 77.1556C77.4071 77.2 78.77 77.2149 80.1333 77.2C80.1049 76.2298 80.1345 75.2669 80.2222 74.3111C80.7186 74.2395 81.2074 74.2543 81.6889 74.3556C81.7621 75.7399 81.7473 77.1177 81.6444 78.4889C79.7778 78.5482 77.9111 78.5482 76.0444 78.4889C75.685 78.4789 75.3592 78.3752 75.0666 78.1778C74.6488 78.3874 74.2043 78.4911 73.7333 78.4889C72.3407 78.5482 70.9482 78.5482 69.5555 78.4889C69.1994 78.4789 68.8735 78.3753 68.5778 78.1778C68.1894 78.3821 67.7746 78.4857 67.3333 78.4889C65.4349 78.5654 63.5386 78.5358 61.6444 78.4C61.1839 78.3261 60.8728 78.0743 60.7111 77.6445C60.5903 76.7903 60.5458 75.931 60.5778 75.0667C61.0815 75.0667 61.5851 75.0667 62.0889 75.0667C62.0741 75.66 62.0889 76.2526 62.1333 76.8445C62.1778 76.9482 62.2518 77.0222 62.3555 77.0667C63.9225 77.2072 65.4928 77.2368 67.0666 77.1556C67.1792 77.1281 67.2829 77.0837 67.3778 77.0222C67.3947 76.0969 67.4392 75.1784 67.5111 74.2667Z" fill="#F4811F"/>
<path opacity="0.794" fill-rule="evenodd" clip-rule="evenodd" d="M73.4666 79.0667C74.2342 79.0262 74.575 79.3817 74.4889 80.1334C74.2589 80.5394 73.9181 80.6728 73.4666 80.5334C72.8803 80.0494 72.8803 79.5605 73.4666 79.0667Z" fill="#F5821E"/>
<path opacity="0.794" fill-rule="evenodd" clip-rule="evenodd" d="M75.0667 79.0667C75.8727 78.9867 76.2134 79.3422 76.0889 80.1334C75.8725 80.5533 75.5317 80.6866 75.0667 80.5334C74.9333 80.4593 74.8296 80.3556 74.7556 80.2222C74.6257 79.7623 74.7294 79.3772 75.0667 79.0667Z" fill="#F4821E"/>
<path opacity="0.823" fill-rule="evenodd" clip-rule="evenodd" d="M80.6667 78.9778C81.1974 79.0195 81.5234 79.301 81.6444 79.8222C81.2347 80.7326 80.7161 80.8067 80.0889 80.0444C80.0218 79.7953 80.0514 79.5582 80.1778 79.3333C80.3569 79.2269 80.5199 79.1084 80.6667 78.9778Z" fill="#F5821E"/>
<path opacity="0.884" fill-rule="evenodd" clip-rule="evenodd" d="M15.2444 81.9111C15.9579 81.8918 16.6394 82.0251 17.2889 82.3111C17.8255 82.7694 18.0625 83.3323 18 84C17.5555 84.0593 17.1111 84.0593 16.6667 84C16.3715 83.1646 15.8084 82.9275 14.9778 83.2889C14.6967 83.6891 14.7856 83.9855 15.2444 84.1778C15.9293 84.3416 16.6107 84.5194 17.2889 84.7111C18.2322 85.2511 18.5137 86.0363 18.1333 87.0667C17.8471 87.706 17.3582 88.0763 16.6667 88.1778C16.0444 88.2371 15.4222 88.2371 14.8 88.1778C13.6334 87.9151 13.1001 87.1893 13.2 86C13.674 86 14.1482 86 14.6222 86C14.584 86.5306 14.821 86.8714 15.3333 87.0223C15.6972 87.0904 16.0528 87.0608 16.4 86.9334C17.018 86.4972 16.9587 86.1416 16.2222 85.8667C15.5293 85.7134 14.8478 85.5207 14.1778 85.2889C13.4087 84.7759 13.1568 84.0648 13.4222 83.1556C13.5851 82.6371 13.9259 82.2963 14.4444 82.1334C14.7225 82.0586 14.9891 81.9845 15.2444 81.9111Z" fill="#F5821E"/>
<path opacity="0.897" fill-rule="evenodd" clip-rule="evenodd" d="M18.7111 82.0889C19.1556 82.0889 19.6 82.0889 20.0445 82.0889C20.0297 82.7414 20.0445 83.3932 20.0889 84.0444C20.2428 83.8562 20.4354 83.7229 20.6667 83.6444C21.6856 83.3259 22.4116 83.637 22.8445 84.5778C22.8889 85.7626 22.9037 86.9478 22.8889 88.1333C22.4149 88.1333 21.9407 88.1333 21.4667 88.1333C21.4815 87.1255 21.4667 86.118 21.4222 85.1111C21.1407 84.6224 20.7703 84.5482 20.3111 84.8889C20.1774 85.0214 20.1034 85.1843 20.0889 85.3778C20.0445 86.2958 20.0297 87.2143 20.0445 88.1333C19.6 88.1333 19.1556 88.1333 18.7111 88.1333C18.7111 86.1185 18.7111 84.1037 18.7111 82.0889Z" fill="#F4821F"/>
<path opacity="0.918" fill-rule="evenodd" clip-rule="evenodd" d="M57.6445 82.0889C58.1185 82.0889 58.5926 82.0889 59.0667 82.0889C59.0667 82.8296 59.0667 83.5704 59.0667 84.3111C59.8074 84.3111 60.5482 84.3111 61.2889 84.3111C61.2889 83.5704 61.2889 82.8296 61.2889 82.0889C61.763 82.0889 62.2371 82.0889 62.7111 82.0889C62.7111 84.1037 62.7111 86.1185 62.7111 88.1333C62.2371 88.1333 61.763 88.1333 61.2889 88.1333C61.2889 87.3037 61.2889 86.474 61.2889 85.6444C60.5482 85.6444 59.8074 85.6444 59.0667 85.6444C59.0667 86.474 59.0667 87.3037 59.0667 88.1333C58.5926 88.1333 58.1185 88.1333 57.6445 88.1333C57.6445 86.1185 57.6445 84.1037 57.6445 82.0889Z" fill="#F4811F"/>
<path opacity="0.884" fill-rule="evenodd" clip-rule="evenodd" d="M24.7555 83.6C25.3785 83.5853 26.0007 83.6 26.6222 83.6445C27.2207 83.8279 27.5614 84.2279 27.6444 84.8445C27.6645 85.9437 27.709 87.0399 27.7778 88.1333C27.2379 88.1817 26.7194 88.1225 26.2222 87.9556C25.4423 88.2901 24.6571 88.3049 23.8666 88C23.6785 87.8461 23.5451 87.6535 23.4666 87.4222C23.192 86.4912 23.5031 85.8838 24.4 85.6C24.9333 85.5111 25.4666 85.4222 26 85.3333C26.309 84.8777 26.1906 84.6259 25.6444 84.5778C25.2498 84.5398 24.9831 84.7028 24.8444 85.0667C24.401 85.111 23.9565 85.1259 23.5111 85.1111C23.5216 84.8277 23.5956 84.5611 23.7333 84.3111C24.0162 83.9826 24.357 83.7455 24.7555 83.6ZM25.7333 86.1778C25.8815 86.1778 26.0296 86.1778 26.1778 86.1778C26.2526 87.0362 25.8674 87.3769 25.0222 87.2C24.7074 86.9972 24.6778 86.7601 24.9333 86.4889C25.1866 86.3297 25.4533 86.226 25.7333 86.1778Z" fill="#F4811F"/>
<path opacity="0.882" fill-rule="evenodd" clip-rule="evenodd" d="M36.2222 83.6001C37.0086 83.5444 37.779 83.6185 38.5333 83.8223C38.7971 84.0089 38.96 84.2609 39.0222 84.5778C39.0436 85.7652 39.0881 86.9505 39.1555 88.1334C38.7101 88.1481 38.2657 88.1333 37.8222 88.0889C37.7755 88.0274 37.7163 87.983 37.6444 87.9556C37.0464 88.2059 36.4242 88.28 35.7778 88.1778C35.1426 87.9907 34.8463 87.561 34.8889 86.8889C34.8281 86.3409 35.0355 85.9409 35.5111 85.6889C36.157 85.5415 36.8088 85.423 37.4667 85.3334C37.7838 84.8469 37.6505 84.5951 37.0667 84.5778C36.6423 84.5148 36.4201 84.6926 36.4 85.1112C35.9259 85.1112 35.4518 85.1112 34.9778 85.1112C35.0723 84.3358 35.4872 83.8321 36.2222 83.6001ZM37.1111 86.1778C37.2889 86.1778 37.4667 86.1778 37.6444 86.1778C37.7193 87.0362 37.3341 87.3769 36.4889 87.2001C36.1741 86.9972 36.1445 86.7601 36.4 86.4889C36.6244 86.3361 36.8615 86.2324 37.1111 86.1778Z" fill="#F5821E"/>
<path opacity="0.891" fill-rule="evenodd" clip-rule="evenodd" d="M41.7333 83.6C42.0593 83.6 42.3851 83.6 42.7111 83.6C42.7111 84.0148 42.7111 84.4296 42.7111 84.8444C42.2712 84.7963 41.8563 84.8704 41.4667 85.0666C41.3813 85.1928 41.3073 85.3261 41.2444 85.4666C41.1204 86.3497 41.076 87.2386 41.1111 88.1333C40.6667 88.1333 40.2222 88.1333 39.7778 88.1333C39.7778 86.6518 39.7778 85.1704 39.7778 83.6889C40.2222 83.6889 40.6667 83.6889 41.1111 83.6889C41.0969 83.8399 41.1116 83.9881 41.1555 84.1333C41.2883 83.8832 41.4809 83.7054 41.7333 83.6Z" fill="#F5821F"/>
<path opacity="0.903" fill-rule="evenodd" clip-rule="evenodd" d="M44.9333 83.6C45.49 83.5442 46.0233 83.6182 46.5333 83.8222C46.6187 83.9484 46.6927 84.0817 46.7556 84.2222C46.923 83.9659 47.1452 83.7733 47.4222 83.6445C47.9631 83.5679 48.4964 83.5976 49.0222 83.7334C49.4321 83.9942 49.6543 84.3646 49.6889 84.8445C49.7333 85.9404 49.7482 87.0366 49.7333 88.1334C49.2593 88.1334 48.7852 88.1334 48.3111 88.1334C48.326 87.0959 48.3111 86.0589 48.2667 85.0222C48.026 84.6769 47.7148 84.6029 47.3333 84.8C47.2095 84.9041 47.1354 85.0374 47.1111 85.2C47.0667 86.1774 47.0518 87.1551 47.0667 88.1334C46.6222 88.1334 46.1778 88.1334 45.7333 88.1334C45.7482 87.1847 45.7333 86.2366 45.6889 85.2889C45.2732 84.4658 44.8287 84.4658 44.3556 85.2889C44.3111 86.2366 44.2963 87.1847 44.3111 88.1334C43.8667 88.1334 43.4222 88.1334 42.9778 88.1334C42.9778 86.6518 42.9778 85.1704 42.9778 83.6889C43.3926 83.6889 43.8074 83.6889 44.2222 83.6889C44.208 83.8399 44.2228 83.9881 44.2667 84.1334C44.4564 83.8975 44.6786 83.7198 44.9333 83.6Z" fill="#F4811E"/>
<path opacity="0.869" fill-rule="evenodd" clip-rule="evenodd" d="M51.6 83.6C52.2229 83.5853 52.8452 83.6 53.4667 83.6445C53.8831 83.7645 54.1942 84.0163 54.4 84.4C54.4296 85.4963 54.4593 86.5926 54.4889 87.6889C54.5246 87.8109 54.5691 87.9293 54.6222 88.0445C54.1518 88.1329 53.6778 88.1625 53.2 88.1333C53.2132 88.0398 53.1985 87.9509 53.1556 87.8667C52.9607 88.0209 52.7385 88.1246 52.4889 88.1778C51.948 88.2543 51.4147 88.2246 50.8889 88.0889C50.0639 87.4356 49.975 86.6948 50.6222 85.8667C51.3312 85.5667 52.0719 85.3889 52.8444 85.3333C53.2 85.0963 53.2 84.8593 52.8444 84.6222C52.5778 84.5629 52.3111 84.5629 52.0444 84.6222C51.9225 84.7326 51.8336 84.866 51.7778 85.0222C51.3372 85.1106 50.8928 85.1402 50.4444 85.1111C50.4687 84.318 50.854 83.8143 51.6 83.6ZM52.4889 86.1778C52.6963 86.1778 52.9037 86.1778 53.1111 86.1778C53.0789 87.1347 52.6196 87.4309 51.7333 87.0667C51.711 86.5406 51.9628 86.2444 52.4889 86.1778Z" fill="#F5821E"/>
<path opacity="0.882" fill-rule="evenodd" clip-rule="evenodd" d="M64.9333 83.6C67.3189 83.3636 68.3115 84.4303 67.9111 86.8C67.5331 87.797 66.8071 88.2711 65.7333 88.2223C64.9156 88.2914 64.2786 87.9952 63.8222 87.3334C63.2262 86.1892 63.3299 85.1078 64.1333 84.0889C64.3789 83.8779 64.6456 83.7149 64.9333 83.6ZM65.3778 84.6667C66.011 84.5309 66.411 84.768 66.5778 85.3778C66.6699 85.9017 66.6107 86.4055 66.4 86.8889C65.7106 87.3425 65.2069 87.1944 64.8889 86.4445C64.7967 85.9206 64.8559 85.4168 65.0667 84.9334C65.1684 84.8324 65.2722 84.7435 65.3778 84.6667Z" fill="#F5821F"/>
<path opacity="0.869" fill-rule="evenodd" clip-rule="evenodd" d="M74.4444 83.6C75.1336 83.5648 75.8151 83.6093 76.4889 83.7334C77.042 84.0248 77.3087 84.484 77.2889 85.1112C76.8444 85.1112 76.4 85.1112 75.9555 85.1112C76.0031 84.8678 75.9142 84.7048 75.6889 84.6223C75.4222 84.563 75.1555 84.563 74.8889 84.6223C74.7703 84.876 74.8443 85.0686 75.1111 85.2C75.7335 85.3068 76.341 85.4697 76.9333 85.6889C77.0371 85.7927 77.1407 85.8963 77.2444 86C77.6028 87.5393 76.9806 88.28 75.3778 88.2223C74.708 88.2774 74.1155 88.0996 73.6 87.6889C73.3969 87.3612 73.2931 87.0056 73.2889 86.6223C73.7333 86.6223 74.1778 86.6223 74.6222 86.6223C74.774 87.1579 75.1296 87.3505 75.6889 87.2C75.9902 87.1106 76.0791 86.9328 75.9555 86.6667C75.3404 86.3594 74.6886 86.152 74 86.0445C73.545 85.8365 73.3376 85.4809 73.3778 84.9778C73.3835 84.7475 73.428 84.5253 73.5111 84.3112C73.678 84.174 73.8114 84.0111 73.9111 83.8223C74.0987 83.7472 74.2765 83.6731 74.4444 83.6Z" fill="#F5821E"/>
<path opacity="0.892" fill-rule="evenodd" clip-rule="evenodd" d="M79.2444 83.6C80.479 83.324 81.3827 83.7389 81.9555 84.8445C82.0685 85.3115 82.113 85.7855 82.0889 86.2667C81.0815 86.2667 80.074 86.2667 79.0666 86.2667C79.3054 87.1407 79.8387 87.363 80.6666 86.9334C80.7259 86.8445 80.7851 86.7556 80.8444 86.6667C81.2582 86.6223 81.673 86.6075 82.0889 86.6223C81.6581 87.9644 80.7396 88.4829 79.3333 88.1778C78.9322 88.1335 78.5915 87.9704 78.3111 87.6889C77.4655 86.5825 77.4359 85.4567 78.2222 84.3111C78.5073 83.9797 78.848 83.7426 79.2444 83.6ZM79.6 84.6667C80.1991 84.5527 80.5842 84.7749 80.7555 85.3334C80.1933 85.3778 79.6304 85.3926 79.0666 85.3778C79.1586 85.075 79.3363 84.8379 79.6 84.6667Z" fill="#F5821F"/>
<path opacity="0.887" fill-rule="evenodd" clip-rule="evenodd" d="M27.9556 83.6888C28.4296 83.6888 28.9037 83.6888 29.3778 83.6888C29.5453 84.5367 29.7675 85.3663 30.0445 86.1777C30.2993 85.3628 30.4919 84.5332 30.6222 83.6888C31.09 83.6617 31.5492 83.6914 32 83.7777C32.1514 84.5649 32.3589 85.3353 32.6222 86.0888C32.8881 85.3053 33.1103 84.5053 33.2889 83.6888C33.7667 83.6597 34.2407 83.6893 34.7111 83.7777C34.283 85.2393 33.8386 86.6912 33.3778 88.1333C32.9037 88.1333 32.4296 88.1333 31.9556 88.1333C31.7773 87.3312 31.5847 86.5312 31.3778 85.7333C31.0319 86.494 30.8097 87.294 30.7111 88.1333C30.214 88.1606 29.7251 88.1309 29.2445 88.0444C28.7464 86.6156 28.3167 85.1637 27.9556 83.6888Z" fill="#F5821E"/>
<path opacity="0.895" fill-rule="evenodd" clip-rule="evenodd" d="M68.5778 83.6888C69.0518 83.6888 69.526 83.6888 70 83.6888C69.9852 84.6967 70 85.7041 70.0444 86.7111C70.2912 87.1192 70.6319 87.2229 71.0667 87.0222C71.2282 86.8622 71.3319 86.6696 71.3778 86.4444C71.4222 85.5264 71.437 84.6079 71.4222 83.6888C71.8667 83.6888 72.3111 83.6888 72.7556 83.6888C72.7556 85.1704 72.7556 86.6518 72.7556 88.1333C72.3111 88.1333 71.8667 88.1333 71.4222 88.1333C71.4355 88.0398 71.4207 87.9509 71.3778 87.8666C71.1963 88.0536 70.974 88.1574 70.7111 88.1777C69.4685 88.4993 68.7722 88.0401 68.6222 86.8C68.5778 85.7633 68.5629 84.7263 68.5778 83.6888Z" fill="#F5811F"/>
</svg>
